%TF.GenerationSoftware,KiCad,Pcbnew,8.0.1*%
%TF.CreationDate,2024-04-20T10:16:12+12:00*%
%TF.ProjectId,thumb-hat,7468756d-622d-4686-9174-2e6b69636164,rev?*%
%TF.SameCoordinates,Original*%
%TF.FileFunction,Legend,Top*%
%TF.FilePolarity,Positive*%
%FSLAX46Y46*%
G04 Gerber Fmt 4.6, Leading zero omitted, Abs format (unit mm)*
G04 Created by KiCad (PCBNEW 8.0.1) date 2024-04-20 10:16:12*
%MOMM*%
%LPD*%
G01*
G04 APERTURE LIST*
%ADD10C,0.100000*%
G04 APERTURE END LIST*
D10*
X131666667Y-102409800D02*
X131809524Y-102457419D01*
X131809524Y-102457419D02*
X132047619Y-102457419D01*
X132047619Y-102457419D02*
X132142857Y-102409800D01*
X132142857Y-102409800D02*
X132190476Y-102362180D01*
X132190476Y-102362180D02*
X132238095Y-102266942D01*
X132238095Y-102266942D02*
X132238095Y-102171704D01*
X132238095Y-102171704D02*
X132190476Y-102076466D01*
X132190476Y-102076466D02*
X132142857Y-102028847D01*
X132142857Y-102028847D02*
X132047619Y-101981228D01*
X132047619Y-101981228D02*
X131857143Y-101933609D01*
X131857143Y-101933609D02*
X131761905Y-101885990D01*
X131761905Y-101885990D02*
X131714286Y-101838371D01*
X131714286Y-101838371D02*
X131666667Y-101743133D01*
X131666667Y-101743133D02*
X131666667Y-101647895D01*
X131666667Y-101647895D02*
X131714286Y-101552657D01*
X131714286Y-101552657D02*
X131761905Y-101505038D01*
X131761905Y-101505038D02*
X131857143Y-101457419D01*
X131857143Y-101457419D02*
X132095238Y-101457419D01*
X132095238Y-101457419D02*
X132238095Y-101505038D01*
X132571429Y-101457419D02*
X132809524Y-102457419D01*
X132809524Y-102457419D02*
X133000000Y-101743133D01*
X133000000Y-101743133D02*
X133190476Y-102457419D01*
X133190476Y-102457419D02*
X133428572Y-101457419D01*
X134333333Y-102457419D02*
X133761905Y-102457419D01*
X134047619Y-102457419D02*
X134047619Y-101457419D01*
X134047619Y-101457419D02*
X133952381Y-101600276D01*
X133952381Y-101600276D02*
X133857143Y-101695514D01*
X133857143Y-101695514D02*
X133761905Y-101743133D01*
M02*
