  0
SECTION
  2
HEADER
  9
$ANGBASE
  50
0.0
  9
$ANGDIR
  70
1
  9
$MEASUREMENT
  70
0
  0
ENDSEC
  0
SECTION
  2
TABLES
  0
TABLE
  2
LTYPE
  70
4
  0
LTYPE
  5
40F
  2
CONTINUOUS
  70
0
  3
Solid line
  72
65
  73
0
  40
0.0
  0
LTYPE
  5
410
  2
DASHDOT
 70
0
  3
Dash Dot ____ _ ____ _
 72
65
 73
4
 40
2.0
 49
1.25
 49
-0.25
 49
0.25
 49
-0.25
  0
LTYPE
  5
411
  2
DASHED
 70
0
  3
Dashed __ __ __ __ __
 72
65
 73
2
 40
0.75
 49
0.5
 49
-0.25
  0
LTYPE
  5
43B
  2
DOTTED
 70
0
  3
Dotted .  .  .  .
 72
65
 73
2
 40
0.2
 49
0.0
 49
-0.2
  0
ENDTAB
  0
TABLE
  2
STYLE
  70
4
  0
STYLE
  2
KICAD
  70
0
  40
0
  41
1
  42
1
  50
0
  71
0
  3
isocp.shx
  0
STYLE
  2
KICADB
  70
0
  40
0
  41
1
  42
1
  50
0
  71
0
  3
isocp.shx
  0
STYLE
  2
KICADI
  70
0
  40
0
  41
1
  42
1
  50
15
  71
0
  3
isocp.shx
  0
STYLE
  2
KICADBI
  70
0
  40
0
  41
1
  42
1
  50
15
  71
0
  3
isocp.shx
  0
ENDTAB
  0
TABLE
  2
LAYER
  70
1
  0
LAYER
  2
BLACK
  70
0
  62
7
  6
CONTINUOUS
  0
ENDTAB
  0
ENDSEC
  0
SECTION
  2
ENTITIES
0
LINE
8
BLACK
6
CONTINUOUS
10
5.6500000000000004
20
-3.5500000000000003
11
5.6500000000000004
21
-3.9500000000000002
0
LINE
8
BLACK
6
CONTINUOUS
10
5.6500000000000004
20
-3.9500000000000002
11
6.0499999999999998
21
-3.9500000000000002
0
LINE
8
BLACK
6
CONTINUOUS
10
6.0499999999999998
20
-3.9500000000000002
11
6.0499999999999998
21
-3.5500000000000003
0
LINE
8
BLACK
6
CONTINUOUS
10
6.0499999999999998
20
-3.5500000000000003
11
5.6500000000000004
21
-3.5500000000000003
0
LINE
8
BLACK
6
CONTINUOUS
10
6.0499999999999998
20
-3.6000000000000001
11
6.1500000000000004
21
-3.6000000000000001
0
LINE
8
BLACK
6
CONTINUOUS
10
5.9966653543307089
20
-3.6088464566929135
11
6.0204724409448822
21
-3.6088464566929135
0
LINE
8
BLACK
6
CONTINUOUS
10
5.9919015748031494
20
-3.6231299212598427
11
6.0085669291338588
21
-3.5731299212598429
0
LINE
8
BLACK
6
CONTINUOUS
10
6.0085669291338588
20
-3.5731299212598429
11
6.0252362204724408
21
-3.6231299212598427
0
LINE
8
BLACK
6
CONTINUOUS
10
6.1142874015748037
20
-3.5898779527559057
11
6.0857165354330709
21
-3.5898779527559057
0
LINE
8
BLACK
6
CONTINUOUS
10
6.1000000000000005
20
-3.5898779527559057
11
6.1000000000000005
21
-3.5398779527559054
0
LINE
8
BLACK
6
CONTINUOUS
10
6.1000000000000005
20
-3.5398779527559054
11
6.0952401574803154
21
-3.5470236220472442
0
LINE
8
BLACK
6
CONTINUOUS
10
6.0952401574803154
20
-3.5470236220472442
11
6.090476377952756
21
-3.5517834645669293
0
LINE
8
BLACK
6
CONTINUOUS
10
6.090476377952756
20
-3.5517834645669293
11
6.0857165354330709
21
-3.554165354330709
0
LINE
8
BLACK
6
CONTINUOUS
10
6.0499999999999998
20
-3.7000000000000002
11
6.1500000000000004
21
-3.7000000000000002
0
LINE
8
BLACK
6
CONTINUOUS
10
6.0085708661417323
20
-3.6969409448818897
11
6.0157125984251971
21
-3.6993228346456695
0
LINE
8
BLACK
6
CONTINUOUS
10
6.0157125984251971
20
-3.6993228346456695
11
6.0180944881889769
21
-3.7017007874015748
0
LINE
8
BLACK
6
CONTINUOUS
10
6.0180944881889769
20
-3.7017007874015748
11
6.0204724409448822
21
-3.7064645669291338
0
LINE
8
BLACK
6
CONTINUOUS
10
6.0204724409448822
20
-3.7064645669291338
11
6.0204724409448822
21
-3.7136062992125987
0
LINE
8
BLACK
6
CONTINUOUS
10
6.0204724409448822
20
-3.7136062992125987
11
6.0180944881889769
21
-3.7183700787401577
0
LINE
8
BLACK
6
CONTINUOUS
10
6.0180944881889769
20
-3.7183700787401577
11
6.0157125984251971
21
-3.720751968503937
0
LINE
8
BLACK
6
CONTINUOUS
10
6.0157125984251971
20
-3.720751968503937
11
6.0109488188976377
21
-3.7231299212598428
0
LINE
8
BLACK
6
CONTINUOUS
10
6.0109488188976377
20
-3.7231299212598428
11
5.9919015748031494
21
-3.7231299212598428
0
LINE
8
BLACK
6
CONTINUOUS
10
5.9919015748031494
20
-3.7231299212598428
11
5.9919015748031494
21
-3.6731299212598425
0
LINE
8
BLACK
6
CONTINUOUS
10
5.9919015748031494
20
-3.6731299212598425
11
6.0085708661417323
21
-3.6731299212598425
0
LINE
8
BLACK
6
CONTINUOUS
10
6.0085708661417323
20
-3.6731299212598425
11
6.0133307086614174
21
-3.6755118110236222
0
LINE
8
BLACK
6
CONTINUOUS
10
6.0133307086614174
20
-3.6755118110236222
11
6.0157125984251971
21
-3.6778937007874015
0
LINE
8
BLACK
6
CONTINUOUS
10
6.0157125984251971
20
-3.6778937007874015
11
6.0180944881889769
21
-3.6826535433070866
0
LINE
8
BLACK
6
CONTINUOUS
10
6.0180944881889769
20
-3.6826535433070866
11
6.0180944881889769
21
-3.6874173228346456
0
LINE
8
BLACK
6
CONTINUOUS
10
6.0180944881889769
20
-3.6874173228346456
11
6.0157125984251971
21
-3.6921771653543307
0
LINE
8
BLACK
6
CONTINUOUS
10
6.0157125984251971
20
-3.6921771653543307
11
6.0133307086614174
21
-3.6945590551181104
0
LINE
8
BLACK
6
CONTINUOUS
10
6.0133307086614174
20
-3.6945590551181104
11
6.0085708661417323
21
-3.6969409448818897
0
LINE
8
BLACK
6
CONTINUOUS
10
6.0085708661417323
20
-3.6969409448818897
11
5.9919015748031494
21
-3.6969409448818897
0
LINE
8
BLACK
6
CONTINUOUS
10
6.0857165354330709
20
-3.6446417322834646
11
6.0880944881889762
21
-3.6422598425196853
0
LINE
8
BLACK
6
CONTINUOUS
10
6.0880944881889762
20
-3.6422598425196853
11
6.0928582677165357
21
-3.6398779527559055
0
LINE
8
BLACK
6
CONTINUOUS
10
6.0928582677165357
20
-3.6398779527559055
11
6.1047637795275591
21
-3.6398779527559055
0
LINE
8
BLACK
6
CONTINUOUS
10
6.1047637795275591
20
-3.6398779527559055
11
6.1095236220472442
21
-3.6422598425196853
0
LINE
8
BLACK
6
CONTINUOUS
10
6.1095236220472442
20
-3.6422598425196853
11
6.1119055118110239
21
-3.6446417322834646
0
LINE
8
BLACK
6
CONTINUOUS
10
6.1119055118110239
20
-3.6446417322834646
11
6.1142874015748037
21
-3.6494015748031496
0
LINE
8
BLACK
6
CONTINUOUS
10
6.1142874015748037
20
-3.6494015748031496
11
6.1142874015748037
21
-3.6541653543307087
0
LINE
8
BLACK
6
CONTINUOUS
10
6.1142874015748037
20
-3.6541653543307087
11
6.1119055118110239
21
-3.6613070866141735
0
LINE
8
BLACK
6
CONTINUOUS
10
6.1119055118110239
20
-3.6613070866141735
11
6.0833346456692912
21
-3.6898779527559058
0
LINE
8
BLACK
6
CONTINUOUS
10
6.0833346456692912
20
-3.6898779527559058
11
6.1142874015748037
21
-3.6898779527559058
0
LINE
8
BLACK
6
CONTINUOUS
10
6.0499999999999998
20
-3.8000000000000003
11
6.1500000000000004
21
-3.8000000000000003
0
LINE
8
BLACK
6
CONTINUOUS
10
6.0204724409448822
20
-3.8183700787401578
11
6.0180944881889769
21
-3.8207519685039371
0
LINE
8
BLACK
6
CONTINUOUS
10
6.0180944881889769
20
-3.8207519685039371
11
6.0109488188976377
21
-3.8231299212598429
0
LINE
8
BLACK
6
CONTINUOUS
10
6.0109488188976377
20
-3.8231299212598429
11
6.0061889763779526
21
-3.8231299212598429
0
LINE
8
BLACK
6
CONTINUOUS
10
6.0061889763779526
20
-3.8231299212598429
11
5.9990472440944886
21
-3.8207519685039371
0
LINE
8
BLACK
6
CONTINUOUS
10
5.9990472440944886
20
-3.8207519685039371
11
5.9942834645669292
21
-3.815988188976378
0
LINE
8
BLACK
6
CONTINUOUS
10
5.9942834645669292
20
-3.815988188976378
11
5.9919015748031494
21
-3.811224409448819
0
LINE
8
BLACK
6
CONTINUOUS
10
5.9919015748031494
20
-3.811224409448819
11
5.9895236220472441
21
-3.8017007874015749
0
LINE
8
BLACK
6
CONTINUOUS
10
5.9895236220472441
20
-3.8017007874015749
11
5.9895236220472441
21
-3.7945590551181105
0
LINE
8
BLACK
6
CONTINUOUS
10
5.9895236220472441
20
-3.7945590551181105
11
5.9919015748031494
21
-3.7850354330708664
0
LINE
8
BLACK
6
CONTINUOUS
10
5.9919015748031494
20
-3.7850354330708664
11
5.9942834645669292
21
-3.7802755905511813
0
LINE
8
BLACK
6
CONTINUOUS
10
5.9942834645669292
20
-3.7802755905511813
11
5.9990472440944886
21
-3.7755118110236223
0
LINE
8
BLACK
6
CONTINUOUS
10
5.9990472440944886
20
-3.7755118110236223
11
6.0061889763779526
21
-3.7731299212598426
0
LINE
8
BLACK
6
CONTINUOUS
10
6.0061889763779526
20
-3.7731299212598426
11
6.0109488188976377
21
-3.7731299212598426
0
LINE
8
BLACK
6
CONTINUOUS
10
6.0109488188976377
20
-3.7731299212598426
11
6.0180944881889769
21
-3.7755118110236223
0
LINE
8
BLACK
6
CONTINUOUS
10
6.0180944881889769
20
-3.7755118110236223
11
6.0204724409448822
21
-3.7778937007874016
0
LINE
8
BLACK
6
CONTINUOUS
10
6.0833346456692912
20
-3.7398779527559056
11
6.1142874015748037
21
-3.7398779527559056
0
LINE
8
BLACK
6
CONTINUOUS
10
6.1142874015748037
20
-3.7398779527559056
11
6.0976181102362208
21
-3.7589251968503938
0
LINE
8
BLACK
6
CONTINUOUS
10
6.0976181102362208
20
-3.7589251968503938
11
6.1047637795275591
21
-3.7589251968503938
0
LINE
8
BLACK
6
CONTINUOUS
10
6.1047637795275591
20
-3.7589251968503938
11
6.1095236220472442
21
-3.7613070866141736
0
LINE
8
BLACK
6
CONTINUOUS
10
6.1095236220472442
20
-3.7613070866141736
11
6.1119055118110239
21
-3.7636889763779529
0
LINE
8
BLACK
6
CONTINUOUS
10
6.1119055118110239
20
-3.7636889763779529
11
6.1142874015748037
21
-3.7684488188976379
0
LINE
8
BLACK
6
CONTINUOUS
10
6.1142874015748037
20
-3.7684488188976379
11
6.1142874015748037
21
-3.7803543307086618
0
LINE
8
BLACK
6
CONTINUOUS
10
6.1142874015748037
20
-3.7803543307086618
11
6.1119055118110239
21
-3.7851181102362208
0
LINE
8
BLACK
6
CONTINUOUS
10
6.1119055118110239
20
-3.7851181102362208
11
6.1095236220472442
21
-3.7875000000000001
0
LINE
8
BLACK
6
CONTINUOUS
10
6.1095236220472442
20
-3.7875000000000001
11
6.1047637795275591
21
-3.7898779527559054
0
LINE
8
BLACK
6
CONTINUOUS
10
6.1047637795275591
20
-3.7898779527559054
11
6.090476377952756
21
-3.7898779527559054
0
LINE
8
BLACK
6
CONTINUOUS
10
6.090476377952756
20
-3.7898779527559054
11
6.0857165354330709
21
-3.7875000000000001
0
LINE
8
BLACK
6
CONTINUOUS
10
6.0857165354330709
20
-3.7875000000000001
11
6.0833346456692912
21
-3.7851181102362208
0
LINE
8
BLACK
6
CONTINUOUS
10
6.0499999999999998
20
-3.9000000000000004
11
6.1500000000000004
21
-3.9000000000000004
0
LINE
8
BLACK
6
CONTINUOUS
10
5.9919015748031494
20
-3.9231299212598425
11
5.9919015748031494
21
-3.8731299212598427
0
LINE
8
BLACK
6
CONTINUOUS
10
5.9919015748031494
20
-3.8731299212598427
11
6.0038070866141737
21
-3.8731299212598427
0
LINE
8
BLACK
6
CONTINUOUS
10
6.0038070866141737
20
-3.8731299212598427
11
6.0109488188976377
21
-3.8755118110236224
0
LINE
8
BLACK
6
CONTINUOUS
10
6.0109488188976377
20
-3.8755118110236224
11
6.0157125984251971
21
-3.8802755905511814
0
LINE
8
BLACK
6
CONTINUOUS
10
6.0157125984251971
20
-3.8802755905511814
11
6.0180944881889769
21
-3.8850354330708661
0
LINE
8
BLACK
6
CONTINUOUS
10
6.0180944881889769
20
-3.8850354330708661
11
6.0204724409448822
21
-3.8945590551181102
0
LINE
8
BLACK
6
CONTINUOUS
10
6.0204724409448822
20
-3.8945590551181102
11
6.0204724409448822
21
-3.901700787401575
0
LINE
8
BLACK
6
CONTINUOUS
10
6.0204724409448822
20
-3.901700787401575
11
6.0180944881889769
21
-3.9112244094488191
0
LINE
8
BLACK
6
CONTINUOUS
10
6.0180944881889769
20
-3.9112244094488191
11
6.0157125984251971
21
-3.9159881889763781
0
LINE
8
BLACK
6
CONTINUOUS
10
6.0157125984251971
20
-3.9159881889763781
11
6.0109488188976377
21
-3.9207519685039371
0
LINE
8
BLACK
6
CONTINUOUS
10
6.0109488188976377
20
-3.9207519685039371
11
6.0038070866141737
21
-3.9231299212598425
0
LINE
8
BLACK
6
CONTINUOUS
10
6.0038070866141737
20
-3.9231299212598425
11
5.9919015748031494
21
-3.9231299212598425
0
LINE
8
BLACK
6
CONTINUOUS
10
6.1095236220472442
20
-3.8565472440944881
11
6.1095236220472442
21
-3.8898779527559055
0
LINE
8
BLACK
6
CONTINUOUS
10
6.0976181102362208
20
-3.8375000000000004
11
6.0857165354330709
21
-3.8732125984251971
0
LINE
8
BLACK
6
CONTINUOUS
10
6.0857165354330709
20
-3.8732125984251971
11
6.116665354330709
21
-3.8732125984251971
0
LINE
8
BLACK
6
CONTINUOUS
10
5.6500000000000004
20
-3.6500000000000004
11
5.5499999999999998
21
-3.6500000000000004
0
LINE
8
BLACK
6
CONTINUOUS
10
5.6819015748031498
20
-3.6731299212598425
11
5.6819015748031498
21
-3.6231299212598427
0
LINE
8
BLACK
6
CONTINUOUS
10
5.6819015748031498
20
-3.6231299212598427
11
5.700948818897638
21
-3.6231299212598427
0
LINE
8
BLACK
6
CONTINUOUS
10
5.700948818897638
20
-3.6231299212598427
11
5.7057125984251966
21
-3.625511811023622
0
LINE
8
BLACK
6
CONTINUOUS
10
5.7057125984251966
20
-3.625511811023622
11
5.7080944881889764
21
-3.6278937007874017
0
LINE
8
BLACK
6
CONTINUOUS
10
5.7080944881889764
20
-3.6278937007874017
11
5.7104724409448817
21
-3.6326535433070868
0
LINE
8
BLACK
6
CONTINUOUS
10
5.7104724409448817
20
-3.6326535433070868
11
5.7104724409448817
21
-3.6397992125984255
0
LINE
8
BLACK
6
CONTINUOUS
10
5.7104724409448817
20
-3.6397992125984255
11
5.7080944881889764
21
-3.6445590551181102
0
LINE
8
BLACK
6
CONTINUOUS
10
5.7080944881889764
20
-3.6445590551181102
11
5.7057125984251966
21
-3.6469409448818899
0
LINE
8
BLACK
6
CONTINUOUS
10
5.7057125984251966
20
-3.6469409448818899
11
5.700948818897638
21
-3.6493228346456696
0
LINE
8
BLACK
6
CONTINUOUS
10
5.700948818897638
20
-3.6493228346456696
11
5.6819015748031498
21
-3.6493228346456696
0
LINE
8
BLACK
6
CONTINUOUS
10
5.7319015748031497
20
-3.6231299212598427
11
5.7319015748031497
21
-3.6636062992125984
0
LINE
8
BLACK
6
CONTINUOUS
10
5.7319015748031497
20
-3.6636062992125984
11
5.7342834645669294
21
-3.6683700787401574
0
LINE
8
BLACK
6
CONTINUOUS
10
5.7342834645669294
20
-3.6683700787401574
11
5.7366653543307091
21
-3.6707519685039371
0
LINE
8
BLACK
6
CONTINUOUS
10
5.7366653543307091
20
-3.6707519685039371
11
5.7414251968503942
21
-3.6731299212598425
0
LINE
8
BLACK
6
CONTINUOUS
10
5.7414251968503942
20
-3.6731299212598425
11
5.7509488188976379
21
-3.6731299212598425
0
LINE
8
BLACK
6
CONTINUOUS
10
5.7509488188976379
20
-3.6731299212598425
11
5.7557125984251973
21
-3.6707519685039371
0
LINE
8
BLACK
6
CONTINUOUS
10
5.7557125984251973
20
-3.6707519685039371
11
5.7580944881889762
21
-3.6683700787401574
0
LINE
8
BLACK
6
CONTINUOUS
10
5.7580944881889762
20
-3.6683700787401574
11
5.7604724409448824
21
-3.6636062992125984
0
LINE
8
BLACK
6
CONTINUOUS
10
5.7604724409448824
20
-3.6636062992125984
11
5.7604724409448824
21
-3.6231299212598427
0
LINE
8
BLACK
6
CONTINUOUS
10
5.7819055118110239
20
-3.6707519685039371
11
5.7890472440944887
21
-3.6731299212598425
0
LINE
8
BLACK
6
CONTINUOUS
10
5.7890472440944887
20
-3.6731299212598425
11
5.8009527559055121
21
-3.6731299212598425
0
LINE
8
BLACK
6
CONTINUOUS
10
5.8009527559055121
20
-3.6731299212598425
11
5.8057125984251972
21
-3.6707519685039371
0
LINE
8
BLACK
6
CONTINUOUS
10
5.8057125984251972
20
-3.6707519685039371
11
5.8080944881889769
21
-3.6683700787401574
0
LINE
8
BLACK
6
CONTINUOUS
10
5.8080944881889769
20
-3.6683700787401574
11
5.8104763779527557
21
-3.6636062992125984
0
LINE
8
BLACK
6
CONTINUOUS
10
5.8104763779527557
20
-3.6636062992125984
11
5.8104763779527557
21
-3.6588464566929133
0
LINE
8
BLACK
6
CONTINUOUS
10
5.8104763779527557
20
-3.6588464566929133
11
5.8080944881889769
21
-3.6540826771653543
0
LINE
8
BLACK
6
CONTINUOUS
10
5.8080944881889769
20
-3.6540826771653543
11
5.8057125984251972
21
-3.651700787401575
0
LINE
8
BLACK
6
CONTINUOUS
10
5.8057125984251972
20
-3.651700787401575
11
5.8009527559055121
21
-3.6493228346456696
0
LINE
8
BLACK
6
CONTINUOUS
10
5.8009527559055121
20
-3.6493228346456696
11
5.7914291338582675
21
-3.6469409448818899
0
LINE
8
BLACK
6
CONTINUOUS
10
5.7914291338582675
20
-3.6469409448818899
11
5.7866653543307089
21
-3.6445590551181102
0
LINE
8
BLACK
6
CONTINUOUS
10
5.7866653543307089
20
-3.6445590551181102
11
5.7842834645669292
21
-3.6421771653543309
0
LINE
8
BLACK
6
CONTINUOUS
10
5.7842834645669292
20
-3.6421771653543309
11
5.7819055118110239
21
-3.6374173228346458
0
LINE
8
BLACK
6
CONTINUOUS
10
5.7819055118110239
20
-3.6374173228346458
11
5.7819055118110239
21
-3.6326535433070868
0
LINE
8
BLACK
6
CONTINUOUS
10
5.7819055118110239
20
-3.6326535433070868
11
5.7842834645669292
21
-3.6278937007874017
0
LINE
8
BLACK
6
CONTINUOUS
10
5.7842834645669292
20
-3.6278937007874017
11
5.7866653543307089
21
-3.625511811023622
0
LINE
8
BLACK
6
CONTINUOUS
10
5.7866653543307089
20
-3.625511811023622
11
5.7914291338582675
21
-3.6231299212598427
0
LINE
8
BLACK
6
CONTINUOUS
10
5.7914291338582675
20
-3.6231299212598427
11
5.8033307086614174
21
-3.6231299212598427
0
LINE
8
BLACK
6
CONTINUOUS
10
5.8033307086614174
20
-3.6231299212598427
11
5.8104763779527557
21
-3.625511811023622
0
LINE
8
BLACK
6
CONTINUOUS
10
5.8319015748031502
20
-3.6731299212598425
11
5.8319015748031502
21
-3.6231299212598427
0
LINE
8
BLACK
6
CONTINUOUS
10
5.8319015748031502
20
-3.6469409448818899
11
5.8604724409448821
21
-3.6469409448818899
0
LINE
8
BLACK
6
CONTINUOUS
10
5.8604724409448821
20
-3.6731299212598425
11
5.8604724409448821
21
-3.6231299212598427
0
LINE
8
BLACK
6
CONTINUOUS
10
5.6119055118110239
20
-3.5898779527559057
11
5.5880944881889762
21
-3.5898779527559057
0
LINE
8
BLACK
6
CONTINUOUS
10
5.5880944881889762
20
-3.5898779527559057
11
5.5857165354330709
21
-3.6136889763779529
0
LINE
8
BLACK
6
CONTINUOUS
10
5.5857165354330709
20
-3.6136889763779529
11
5.5880944881889762
21
-3.6113070866141732
0
LINE
8
BLACK
6
CONTINUOUS
10
5.5880944881889762
20
-3.6113070866141732
11
5.5928582677165357
21
-3.6089251968503939
0
LINE
8
BLACK
6
CONTINUOUS
10
5.5928582677165357
20
-3.6089251968503939
11
5.6047637795275591
21
-3.6089251968503939
0
LINE
8
BLACK
6
CONTINUOUS
10
5.6047637795275591
20
-3.6089251968503939
11
5.6095236220472442
21
-3.6113070866141732
0
LINE
8
BLACK
6
CONTINUOUS
10
5.6095236220472442
20
-3.6113070866141732
11
5.6119055118110239
21
-3.6136889763779529
0
LINE
8
BLACK
6
CONTINUOUS
10
5.6119055118110239
20
-3.6136889763779529
11
5.6142874015748037
21
-3.618448818897638
0
LINE
8
BLACK
6
CONTINUOUS
10
5.6142874015748037
20
-3.618448818897638
11
5.6142874015748037
21
-3.6303543307086614
0
LINE
8
BLACK
6
CONTINUOUS
10
5.6142874015748037
20
-3.6303543307086614
11
5.6119055118110239
21
-3.6351181102362204
0
LINE
8
BLACK
6
CONTINUOUS
10
5.6119055118110239
20
-3.6351181102362204
11
5.6095236220472442
21
-3.6375000000000002
0
LINE
8
BLACK
6
CONTINUOUS
10
5.6095236220472442
20
-3.6375000000000002
11
5.6047637795275591
21
-3.6398779527559055
0
LINE
8
BLACK
6
CONTINUOUS
10
5.6047637795275591
20
-3.6398779527559055
11
5.5928582677165357
21
-3.6398779527559055
0
LINE
8
BLACK
6
CONTINUOUS
10
5.5928582677165357
20
-3.6398779527559055
11
5.5880944881889762
21
-3.6375000000000002
0
LINE
8
BLACK
6
CONTINUOUS
10
5.5880944881889762
20
-3.6375000000000002
11
5.5857165354330709
21
-3.6351181102362204
0
LINE
8
BLACK
6
CONTINUOUS
10
5.6500000000000004
20
-3.8500000000000001
11
5.5499999999999998
21
-3.8500000000000001
0
LINE
8
BLACK
6
CONTINUOUS
10
5.7104724409448817
20
-3.8683700787401576
11
5.7080944881889764
21
-3.8707519685039373
0
LINE
8
BLACK
6
CONTINUOUS
10
5.7080944881889764
20
-3.8707519685039373
11
5.700948818897638
21
-3.8731299212598427
0
LINE
8
BLACK
6
CONTINUOUS
10
5.700948818897638
20
-3.8731299212598427
11
5.696188976377953
21
-3.8731299212598427
0
LINE
8
BLACK
6
CONTINUOUS
10
5.696188976377953
20
-3.8731299212598427
11
5.6890472440944881
21
-3.8707519685039373
0
LINE
8
BLACK
6
CONTINUOUS
10
5.6890472440944881
20
-3.8707519685039373
11
5.6842834645669296
21
-3.8659881889763783
0
LINE
8
BLACK
6
CONTINUOUS
10
5.6842834645669296
20
-3.8659881889763783
11
5.6819015748031498
21
-3.8612244094488188
0
LINE
8
BLACK
6
CONTINUOUS
10
5.6819015748031498
20
-3.8612244094488188
11
5.6795236220472445
21
-3.8517007874015747
0
LINE
8
BLACK
6
CONTINUOUS
10
5.6795236220472445
20
-3.8517007874015747
11
5.6795236220472445
21
-3.8445590551181104
0
LINE
8
BLACK
6
CONTINUOUS
10
5.6795236220472445
20
-3.8445590551181104
11
5.6819015748031498
21
-3.8350354330708663
0
LINE
8
BLACK
6
CONTINUOUS
10
5.6819015748031498
20
-3.8350354330708663
11
5.6842834645669296
21
-3.8302755905511812
0
LINE
8
BLACK
6
CONTINUOUS
10
5.6842834645669296
20
-3.8302755905511812
11
5.6890472440944881
21
-3.8255118110236221
0
LINE
8
BLACK
6
CONTINUOUS
10
5.6890472440944881
20
-3.8255118110236221
11
5.696188976377953
21
-3.8231299212598429
0
LINE
8
BLACK
6
CONTINUOUS
10
5.696188976377953
20
-3.8231299212598429
11
5.700948818897638
21
-3.8231299212598429
0
LINE
8
BLACK
6
CONTINUOUS
10
5.700948818897638
20
-3.8231299212598429
11
5.7080944881889764
21
-3.8255118110236221
0
LINE
8
BLACK
6
CONTINUOUS
10
5.7080944881889764
20
-3.8255118110236221
11
5.7104724409448817
21
-3.8278937007874019
0
LINE
8
BLACK
6
CONTINUOUS
10
5.7414251968503942
20
-3.8231299212598429
11
5.7509488188976379
21
-3.8231299212598429
0
LINE
8
BLACK
6
CONTINUOUS
10
5.7509488188976379
20
-3.8231299212598429
11
5.7557125984251973
21
-3.8255118110236221
0
LINE
8
BLACK
6
CONTINUOUS
10
5.7557125984251973
20
-3.8255118110236221
11
5.7604724409448824
21
-3.8302755905511812
0
LINE
8
BLACK
6
CONTINUOUS
10
5.7604724409448824
20
-3.8302755905511812
11
5.7628543307086613
21
-3.8397992125984253
0
LINE
8
BLACK
6
CONTINUOUS
10
5.7628543307086613
20
-3.8397992125984253
11
5.7628543307086613
21
-3.8564645669291342
0
LINE
8
BLACK
6
CONTINUOUS
10
5.7628543307086613
20
-3.8564645669291342
11
5.7604724409448824
21
-3.8659881889763783
0
LINE
8
BLACK
6
CONTINUOUS
10
5.7604724409448824
20
-3.8659881889763783
11
5.7557125984251973
21
-3.8707519685039373
0
LINE
8
BLACK
6
CONTINUOUS
10
5.7557125984251973
20
-3.8707519685039373
11
5.7509488188976379
21
-3.8731299212598427
0
LINE
8
BLACK
6
CONTINUOUS
10
5.7509488188976379
20
-3.8731299212598427
11
5.7414251968503942
21
-3.8731299212598427
0
LINE
8
BLACK
6
CONTINUOUS
10
5.7414251968503942
20
-3.8731299212598427
11
5.7366653543307091
21
-3.8707519685039373
0
LINE
8
BLACK
6
CONTINUOUS
10
5.7366653543307091
20
-3.8707519685039373
11
5.7319015748031497
21
-3.8659881889763783
0
LINE
8
BLACK
6
CONTINUOUS
10
5.7319015748031497
20
-3.8659881889763783
11
5.7295236220472443
21
-3.8564645669291342
0
LINE
8
BLACK
6
CONTINUOUS
10
5.7295236220472443
20
-3.8564645669291342
11
5.7295236220472443
21
-3.8397992125984253
0
LINE
8
BLACK
6
CONTINUOUS
10
5.7295236220472443
20
-3.8397992125984253
11
5.7319015748031497
21
-3.8302755905511812
0
LINE
8
BLACK
6
CONTINUOUS
10
5.7319015748031497
20
-3.8302755905511812
11
5.7366653543307091
21
-3.8255118110236221
0
LINE
8
BLACK
6
CONTINUOUS
10
5.7366653543307091
20
-3.8255118110236221
11
5.7414251968503942
21
-3.8231299212598429
0
LINE
8
BLACK
6
CONTINUOUS
10
5.7842834645669292
20
-3.8731299212598427
11
5.7842834645669292
21
-3.8231299212598429
0
LINE
8
BLACK
6
CONTINUOUS
10
5.7842834645669292
20
-3.8231299212598429
11
5.8009527559055121
21
-3.8588464566929135
0
LINE
8
BLACK
6
CONTINUOUS
10
5.8009527559055121
20
-3.8588464566929135
11
5.8176181102362206
21
-3.8231299212598429
0
LINE
8
BLACK
6
CONTINUOUS
10
5.8176181102362206
20
-3.8231299212598429
11
5.8176181102362206
21
-3.8731299212598427
0
LINE
8
BLACK
6
CONTINUOUS
10
5.6095236220472442
20
-3.7898779527559054
11
5.6000000000000005
21
-3.7898779527559054
0
LINE
8
BLACK
6
CONTINUOUS
10
5.6000000000000005
20
-3.7898779527559054
11
5.5952401574803154
21
-3.7922598425196852
0
LINE
8
BLACK
6
CONTINUOUS
10
5.5952401574803154
20
-3.7922598425196852
11
5.5928582677165357
21
-3.7946417322834649
0
LINE
8
BLACK
6
CONTINUOUS
10
5.5928582677165357
20
-3.7946417322834649
11
5.5880944881889762
21
-3.8017834645669293
0
LINE
8
BLACK
6
CONTINUOUS
10
5.5880944881889762
20
-3.8017834645669293
11
5.5857165354330709
21
-3.8113070866141734
0
LINE
8
BLACK
6
CONTINUOUS
10
5.5857165354330709
20
-3.8113070866141734
11
5.5857165354330709
21
-3.8303543307086616
0
LINE
8
BLACK
6
CONTINUOUS
10
5.5857165354330709
20
-3.8303543307086616
11
5.5880944881889762
21
-3.8351181102362206
0
LINE
8
BLACK
6
CONTINUOUS
10
5.5880944881889762
20
-3.8351181102362206
11
5.590476377952756
21
-3.8375000000000004
0
LINE
8
BLACK
6
CONTINUOUS
10
5.590476377952756
20
-3.8375000000000004
11
5.5952401574803154
21
-3.8398779527559057
0
LINE
8
BLACK
6
CONTINUOUS
10
5.5952401574803154
20
-3.8398779527559057
11
5.6047637795275591
21
-3.8398779527559057
0
LINE
8
BLACK
6
CONTINUOUS
10
5.6047637795275591
20
-3.8398779527559057
11
5.6095236220472442
21
-3.8375000000000004
0
LINE
8
BLACK
6
CONTINUOUS
10
5.6095236220472442
20
-3.8375000000000004
11
5.6119055118110239
21
-3.8351181102362206
0
LINE
8
BLACK
6
CONTINUOUS
10
5.6119055118110239
20
-3.8351181102362206
11
5.6142874015748037
21
-3.8303543307086616
0
LINE
8
BLACK
6
CONTINUOUS
10
5.6142874015748037
20
-3.8303543307086616
11
5.6142874015748037
21
-3.8184488188976378
0
LINE
8
BLACK
6
CONTINUOUS
10
5.6142874015748037
20
-3.8184488188976378
11
5.6119055118110239
21
-3.8136889763779531
0
LINE
8
BLACK
6
CONTINUOUS
10
5.6119055118110239
20
-3.8136889763779531
11
5.6095236220472442
21
-3.8113070866141734
0
LINE
8
BLACK
6
CONTINUOUS
10
5.6095236220472442
20
-3.8113070866141734
11
5.6047637795275591
21
-3.8089251968503937
0
LINE
8
BLACK
6
CONTINUOUS
10
5.6047637795275591
20
-3.8089251968503937
11
5.5952401574803154
21
-3.8089251968503937
0
LINE
8
BLACK
6
CONTINUOUS
10
5.5952401574803154
20
-3.8089251968503937
11
5.590476377952756
21
-3.8113070866141734
0
LINE
8
BLACK
6
CONTINUOUS
10
5.590476377952756
20
-3.8113070866141734
11
5.5880944881889762
21
-3.8136889763779531
0
LINE
8
BLACK
6
CONTINUOUS
10
5.5880944881889762
20
-3.8136889763779531
11
5.5857165354330709
21
-3.8184488188976378
0
LINE
8
BLACK
6
CONTINUOUS
10
5.6500000000000004
20
-3.75
11
5.5499999999999998
21
-3.75
0
LINE
8
BLACK
6
CONTINUOUS
10
5.7080944881889764
20
-3.7255118110236221
11
5.7033307086614178
21
-3.7231299212598428
0
LINE
8
BLACK
6
CONTINUOUS
10
5.7033307086614178
20
-3.7231299212598428
11
5.696188976377953
21
-3.7231299212598428
0
LINE
8
BLACK
6
CONTINUOUS
10
5.696188976377953
20
-3.7231299212598428
11
5.6890472440944881
21
-3.7255118110236221
0
LINE
8
BLACK
6
CONTINUOUS
10
5.6890472440944881
20
-3.7255118110236221
11
5.6842834645669296
21
-3.7302755905511811
0
LINE
8
BLACK
6
CONTINUOUS
10
5.6842834645669296
20
-3.7302755905511811
11
5.6819015748031498
21
-3.7350354330708662
0
LINE
8
BLACK
6
CONTINUOUS
10
5.6819015748031498
20
-3.7350354330708662
11
5.6795236220472445
21
-3.7445590551181103
0
LINE
8
BLACK
6
CONTINUOUS
10
5.6795236220472445
20
-3.7445590551181103
11
5.6795236220472445
21
-3.7517007874015751
0
LINE
8
BLACK
6
CONTINUOUS
10
5.6795236220472445
20
-3.7517007874015751
11
5.6819015748031498
21
-3.7612244094488192
0
LINE
8
BLACK
6
CONTINUOUS
10
5.6819015748031498
20
-3.7612244094488192
11
5.6842834645669296
21
-3.7659881889763782
0
LINE
8
BLACK
6
CONTINUOUS
10
5.6842834645669296
20
-3.7659881889763782
11
5.6890472440944881
21
-3.7707519685039372
0
LINE
8
BLACK
6
CONTINUOUS
10
5.6890472440944881
20
-3.7707519685039372
11
5.696188976377953
21
-3.7731299212598426
0
LINE
8
BLACK
6
CONTINUOUS
10
5.696188976377953
20
-3.7731299212598426
11
5.700948818897638
21
-3.7731299212598426
0
LINE
8
BLACK
6
CONTINUOUS
10
5.700948818897638
20
-3.7731299212598426
11
5.7080944881889764
21
-3.7707519685039372
0
LINE
8
BLACK
6
CONTINUOUS
10
5.7080944881889764
20
-3.7707519685039372
11
5.7104724409448817
21
-3.7683700787401575
0
LINE
8
BLACK
6
CONTINUOUS
10
5.7104724409448817
20
-3.7683700787401575
11
5.7104724409448817
21
-3.7517007874015751
0
LINE
8
BLACK
6
CONTINUOUS
10
5.7104724409448817
20
-3.7517007874015751
11
5.700948818897638
21
-3.7517007874015751
0
LINE
8
BLACK
6
CONTINUOUS
10
5.7319015748031497
20
-3.7731299212598426
11
5.7319015748031497
21
-3.7231299212598428
0
LINE
8
BLACK
6
CONTINUOUS
10
5.7319015748031497
20
-3.7231299212598428
11
5.7604724409448824
21
-3.7731299212598426
0
LINE
8
BLACK
6
CONTINUOUS
10
5.7604724409448824
20
-3.7731299212598426
11
5.7604724409448824
21
-3.7231299212598428
0
LINE
8
BLACK
6
CONTINUOUS
10
5.7842834645669292
20
-3.7731299212598426
11
5.7842834645669292
21
-3.7231299212598428
0
LINE
8
BLACK
6
CONTINUOUS
10
5.7842834645669292
20
-3.7231299212598428
11
5.7961889763779526
21
-3.7231299212598428
0
LINE
8
BLACK
6
CONTINUOUS
10
5.7961889763779526
20
-3.7231299212598428
11
5.8033307086614174
21
-3.7255118110236221
0
LINE
8
BLACK
6
CONTINUOUS
10
5.8033307086614174
20
-3.7255118110236221
11
5.8080944881889769
21
-3.7302755905511811
0
LINE
8
BLACK
6
CONTINUOUS
10
5.8080944881889769
20
-3.7302755905511811
11
5.8104763779527557
21
-3.7350354330708662
0
LINE
8
BLACK
6
CONTINUOUS
10
5.8104763779527557
20
-3.7350354330708662
11
5.812854330708662
21
-3.7445590551181103
0
LINE
8
BLACK
6
CONTINUOUS
10
5.812854330708662
20
-3.7445590551181103
11
5.812854330708662
21
-3.7517007874015751
0
LINE
8
BLACK
6
CONTINUOUS
10
5.812854330708662
20
-3.7517007874015751
11
5.8104763779527557
21
-3.7612244094488192
0
LINE
8
BLACK
6
CONTINUOUS
10
5.8104763779527557
20
-3.7612244094488192
11
5.8080944881889769
21
-3.7659881889763782
0
LINE
8
BLACK
6
CONTINUOUS
10
5.8080944881889769
20
-3.7659881889763782
11
5.8033307086614174
21
-3.7707519685039372
0
LINE
8
BLACK
6
CONTINUOUS
10
5.8033307086614174
20
-3.7707519685039372
11
5.7961889763779526
21
-3.7731299212598426
0
LINE
8
BLACK
6
CONTINUOUS
10
5.7961889763779526
20
-3.7731299212598426
11
5.7842834645669292
21
-3.7731299212598426
0
LINE
8
BLACK
6
CONTINUOUS
10
5.5833346456692912
20
-3.6898779527559058
11
5.616665354330709
21
-3.6898779527559058
0
LINE
8
BLACK
6
CONTINUOUS
10
5.616665354330709
20
-3.6898779527559058
11
5.5952401574803154
21
-3.7398779527559056
0
LINE
8
BLACK
6
CONTINUOUS
10
5.7833346456692913
20
-3.420425196850394
11
5.7904763779527562
21
-3.4228031496062994
0
LINE
8
BLACK
6
CONTINUOUS
10
5.7904763779527562
20
-3.4228031496062994
11
5.8023818897637796
21
-3.4228031496062994
0
LINE
8
BLACK
6
CONTINUOUS
10
5.8023818897637796
20
-3.4228031496062994
11
5.8071417322834646
21
-3.420425196850394
0
LINE
8
BLACK
6
CONTINUOUS
10
5.8071417322834646
20
-3.420425196850394
11
5.8095236220472444
21
-3.4180433070866143
0
LINE
8
BLACK
6
CONTINUOUS
10
5.8095236220472444
20
-3.4180433070866143
11
5.8119055118110241
21
-3.4132795275590553
0
LINE
8
BLACK
6
CONTINUOUS
10
5.8119055118110241
20
-3.4132795275590553
11
5.8119055118110241
21
-3.4085196850393702
0
LINE
8
BLACK
6
CONTINUOUS
10
5.8119055118110241
20
-3.4085196850393702
11
5.8095236220472444
21
-3.4037559055118112
0
LINE
8
BLACK
6
CONTINUOUS
10
5.8095236220472444
20
-3.4037559055118112
11
5.8071417322834646
21
-3.4013740157480314
0
LINE
8
BLACK
6
CONTINUOUS
10
5.8071417322834646
20
-3.4013740157480314
11
5.8023818897637796
21
-3.3989960629921261
0
LINE
8
BLACK
6
CONTINUOUS
10
5.8023818897637796
20
-3.3989960629921261
11
5.7928582677165359
21
-3.3966141732283468
0
LINE
8
BLACK
6
CONTINUOUS
10
5.7928582677165359
20
-3.3966141732283468
11
5.7880944881889764
21
-3.3942322834645671
0
LINE
8
BLACK
6
CONTINUOUS
10
5.7880944881889764
20
-3.3942322834645671
11
5.7857125984251967
21
-3.3918503937007873
0
LINE
8
BLACK
6
CONTINUOUS
10
5.7857125984251967
20
-3.3918503937007873
11
5.7833346456692913
21
-3.3870905511811027
0
LINE
8
BLACK
6
CONTINUOUS
10
5.7833346456692913
20
-3.3870905511811027
11
5.7833346456692913
21
-3.3823267716535432
0
LINE
8
BLACK
6
CONTINUOUS
10
5.7833346456692913
20
-3.3823267716535432
11
5.7857125984251967
21
-3.3775669291338586
0
LINE
8
BLACK
6
CONTINUOUS
10
5.7857125984251967
20
-3.3775669291338586
11
5.7880944881889764
21
-3.3751850393700789
0
LINE
8
BLACK
6
CONTINUOUS
10
5.7880944881889764
20
-3.3751850393700789
11
5.7928582677165359
21
-3.3728031496062991
0
LINE
8
BLACK
6
CONTINUOUS
10
5.7928582677165359
20
-3.3728031496062991
11
5.8047598425196849
21
-3.3728031496062991
0
LINE
8
BLACK
6
CONTINUOUS
10
5.8047598425196849
20
-3.3728031496062991
11
5.8119055118110241
21
-3.3751850393700789
0
LINE
8
BLACK
6
CONTINUOUS
10
5.8285708661417326
20
-3.3728031496062991
11
5.840476377952756
21
-3.4228031496062994
0
LINE
8
BLACK
6
CONTINUOUS
10
5.840476377952756
20
-3.4228031496062994
11
5.8500000000000005
21
-3.3870905511811027
0
LINE
8
BLACK
6
CONTINUOUS
10
5.8500000000000005
20
-3.3870905511811027
11
5.8595236220472442
21
-3.4228031496062994
0
LINE
8
BLACK
6
CONTINUOUS
10
5.8595236220472442
20
-3.4228031496062994
11
5.8714291338582676
21
-3.3728031496062991
0
LINE
8
BLACK
6
CONTINUOUS
10
5.9166653543307088
20
-3.4228031496062994
11
5.888094488188977
21
-3.4228031496062994
0
LINE
8
BLACK
6
CONTINUOUS
10
5.9023779527559057
20
-3.4228031496062994
11
5.9023779527559057
21
-3.3728031496062991
0
LINE
8
BLACK
6
CONTINUOUS
10
5.9023779527559057
20
-3.3728031496062991
11
5.8976181102362206
21
-3.3799488188976379
0
LINE
8
BLACK
6
CONTINUOUS
10
5.8976181102362206
20
-3.3799488188976379
11
5.892854330708662
21
-3.384708661417323
0
LINE
8
BLACK
6
CONTINUOUS
10
5.892854330708662
20
-3.384708661417323
11
5.888094488188977
21
-3.3870905511811027
0
LINE
8
BLACK
6
CONTINUOUS
10
6.75
20
-4.1000000000000005
11
6.766
21
-4.1000000000000005
0
LINE
8
BLACK
6
CONTINUOUS
10
6.75
20
-4.
11
6.766
21
-4.
0
LINE
8
BLACK
6
CONTINUOUS
10
6.75
20
-3.9000000000000004
11
6.766
21
-3.9000000000000004
0
LINE
8
BLACK
6
CONTINUOUS
10
6.75
20
-3.8000000000000003
11
6.766
21
-3.8000000000000003
0
LINE
8
BLACK
6
CONTINUOUS
10
6.75
20
-3.7000000000000002
11
6.766
21
-3.7000000000000002
0
LINE
8
BLACK
6
CONTINUOUS
10
6.75
20
-3.6000000000000001
11
6.766
21
-3.6000000000000001
0
LINE
8
BLACK
6
CONTINUOUS
10
6.766
20
-4.0949999999999998
11
6.766
21
-4.1050000000000004
0
LINE
8
BLACK
6
CONTINUOUS
10
6.766
20
-4.1050000000000004
11
6.7999999999999998
21
-4.1050000000000004
0
LINE
8
BLACK
6
CONTINUOUS
10
6.7999999999999998
20
-4.1050000000000004
11
6.7999999999999998
21
-4.0949999999999998
0
LINE
8
BLACK
6
CONTINUOUS
10
6.7999999999999998
20
-4.0949999999999998
11
6.766
21
-4.0949999999999998
0
LINE
8
BLACK
6
CONTINUOUS
10
6.766
20
-3.9950000000000001
11
6.766
21
-4.0049999999999999
0
LINE
8
BLACK
6
CONTINUOUS
10
6.766
20
-4.0049999999999999
11
6.7999999999999998
21
-4.0049999999999999
0
LINE
8
BLACK
6
CONTINUOUS
10
6.7999999999999998
20
-4.0049999999999999
11
6.7999999999999998
21
-3.9950000000000001
0
LINE
8
BLACK
6
CONTINUOUS
10
6.7999999999999998
20
-3.9950000000000001
11
6.766
21
-3.9950000000000001
0
LINE
8
BLACK
6
CONTINUOUS
10
6.766
20
-3.895
11
6.766
21
-3.9050000000000002
0
LINE
8
BLACK
6
CONTINUOUS
10
6.766
20
-3.9050000000000002
11
6.7999999999999998
21
-3.9050000000000002
0
LINE
8
BLACK
6
CONTINUOUS
10
6.7999999999999998
20
-3.9050000000000002
11
6.7999999999999998
21
-3.895
0
LINE
8
BLACK
6
CONTINUOUS
10
6.7999999999999998
20
-3.895
11
6.766
21
-3.895
0
LINE
8
BLACK
6
CONTINUOUS
10
6.766
20
-3.7949999999999999
11
6.766
21
-3.8050000000000002
0
LINE
8
BLACK
6
CONTINUOUS
10
6.766
20
-3.8050000000000002
11
6.7999999999999998
21
-3.8050000000000002
0
LINE
8
BLACK
6
CONTINUOUS
10
6.7999999999999998
20
-3.8050000000000002
11
6.7999999999999998
21
-3.7949999999999999
0
LINE
8
BLACK
6
CONTINUOUS
10
6.7999999999999998
20
-3.7949999999999999
11
6.766
21
-3.7949999999999999
0
LINE
8
BLACK
6
CONTINUOUS
10
6.766
20
-3.6950000000000003
11
6.766
21
-3.7050000000000001
0
LINE
8
BLACK
6
CONTINUOUS
10
6.766
20
-3.7050000000000001
11
6.7999999999999998
21
-3.7050000000000001
0
LINE
8
BLACK
6
CONTINUOUS
10
6.7999999999999998
20
-3.7050000000000001
11
6.7999999999999998
21
-3.6950000000000003
0
LINE
8
BLACK
6
CONTINUOUS
10
6.7999999999999998
20
-3.6950000000000003
11
6.766
21
-3.6950000000000003
0
LINE
8
BLACK
6
CONTINUOUS
10
6.766
20
-3.5950000000000002
11
6.766
21
-3.605
0
LINE
8
BLACK
6
CONTINUOUS
10
6.766
20
-3.605
11
6.7999999999999998
21
-3.605
0
LINE
8
BLACK
6
CONTINUOUS
10
6.7999999999999998
20
-3.605
11
6.7999999999999998
21
-3.5950000000000002
0
LINE
8
BLACK
6
CONTINUOUS
10
6.7999999999999998
20
-3.5950000000000002
11
6.766
21
-3.5950000000000002
0
LINE
8
BLACK
6
CONTINUOUS
10
6.75
20
-3.6000000000000001
11
6.6000000000000005
21
-3.6000000000000001
0
LINE
8
BLACK
6
CONTINUOUS
10
6.6892874015748038
20
-3.5898779527559057
11
6.6607165354330711
21
-3.5898779527559057
0
LINE
8
BLACK
6
CONTINUOUS
10
6.6749999999999998
20
-3.5898779527559057
11
6.6749999999999998
21
-3.5398779527559054
0
LINE
8
BLACK
6
CONTINUOUS
10
6.6749999999999998
20
-3.5398779527559054
11
6.6702401574803156
21
-3.5470236220472442
0
LINE
8
BLACK
6
CONTINUOUS
10
6.6702401574803156
20
-3.5470236220472442
11
6.6654763779527562
21
-3.5517834645669293
0
LINE
8
BLACK
6
CONTINUOUS
10
6.6654763779527562
20
-3.5517834645669293
11
6.6607165354330711
21
-3.554165354330709
0
LINE
8
BLACK
6
CONTINUOUS
10
6.75
20
-3.7000000000000002
11
6.6000000000000005
21
-3.7000000000000002
0
LINE
8
BLACK
6
CONTINUOUS
10
6.6607165354330711
20
-3.6446417322834646
11
6.6630944881889764
21
-3.6422598425196853
0
LINE
8
BLACK
6
CONTINUOUS
10
6.6630944881889764
20
-3.6422598425196853
11
6.6678582677165359
21
-3.6398779527559055
0
LINE
8
BLACK
6
CONTINUOUS
10
6.6678582677165359
20
-3.6398779527559055
11
6.6797637795275593
21
-3.6398779527559055
0
LINE
8
BLACK
6
CONTINUOUS
10
6.6797637795275593
20
-3.6398779527559055
11
6.6845236220472444
21
-3.6422598425196853
0
LINE
8
BLACK
6
CONTINUOUS
10
6.6845236220472444
20
-3.6422598425196853
11
6.6869055118110241
21
-3.6446417322834646
0
LINE
8
BLACK
6
CONTINUOUS
10
6.6869055118110241
20
-3.6446417322834646
11
6.6892874015748038
21
-3.6494015748031496
0
LINE
8
BLACK
6
CONTINUOUS
10
6.6892874015748038
20
-3.6494015748031496
11
6.6892874015748038
21
-3.6541653543307087
0
LINE
8
BLACK
6
CONTINUOUS
10
6.6892874015748038
20
-3.6541653543307087
11
6.6869055118110241
21
-3.6613070866141735
0
LINE
8
BLACK
6
CONTINUOUS
10
6.6869055118110241
20
-3.6613070866141735
11
6.6583346456692913
21
-3.6898779527559058
0
LINE
8
BLACK
6
CONTINUOUS
10
6.6583346456692913
20
-3.6898779527559058
11
6.6892874015748038
21
-3.6898779527559058
0
LINE
8
BLACK
6
CONTINUOUS
10
6.75
20
-3.8000000000000003
11
6.6000000000000005
21
-3.8000000000000003
0
LINE
8
BLACK
6
CONTINUOUS
10
6.6583346456692913
20
-3.7398779527559056
11
6.6892874015748038
21
-3.7398779527559056
0
LINE
8
BLACK
6
CONTINUOUS
10
6.6892874015748038
20
-3.7398779527559056
11
6.672618110236221
21
-3.7589251968503938
0
LINE
8
BLACK
6
CONTINUOUS
10
6.672618110236221
20
-3.7589251968503938
11
6.6797637795275593
21
-3.7589251968503938
0
LINE
8
BLACK
6
CONTINUOUS
10
6.6797637795275593
20
-3.7589251968503938
11
6.6845236220472444
21
-3.7613070866141736
0
LINE
8
BLACK
6
CONTINUOUS
10
6.6845236220472444
20
-3.7613070866141736
11
6.6869055118110241
21
-3.7636889763779529
0
LINE
8
BLACK
6
CONTINUOUS
10
6.6869055118110241
20
-3.7636889763779529
11
6.6892874015748038
21
-3.7684488188976379
0
LINE
8
BLACK
6
CONTINUOUS
10
6.6892874015748038
20
-3.7684488188976379
11
6.6892874015748038
21
-3.7803543307086618
0
LINE
8
BLACK
6
CONTINUOUS
10
6.6892874015748038
20
-3.7803543307086618
11
6.6869055118110241
21
-3.7851181102362208
0
LINE
8
BLACK
6
CONTINUOUS
10
6.6869055118110241
20
-3.7851181102362208
11
6.6845236220472444
21
-3.7875000000000001
0
LINE
8
BLACK
6
CONTINUOUS
10
6.6845236220472444
20
-3.7875000000000001
11
6.6797637795275593
21
-3.7898779527559054
0
LINE
8
BLACK
6
CONTINUOUS
10
6.6797637795275593
20
-3.7898779527559054
11
6.6654763779527562
21
-3.7898779527559054
0
LINE
8
BLACK
6
CONTINUOUS
10
6.6654763779527562
20
-3.7898779527559054
11
6.6607165354330711
21
-3.7875000000000001
0
LINE
8
BLACK
6
CONTINUOUS
10
6.6607165354330711
20
-3.7875000000000001
11
6.6583346456692913
21
-3.7851181102362208
0
LINE
8
BLACK
6
CONTINUOUS
10
6.75
20
-3.9000000000000004
11
6.6000000000000005
21
-3.9000000000000004
0
LINE
8
BLACK
6
CONTINUOUS
10
6.6845236220472444
20
-3.8565472440944881
11
6.6845236220472444
21
-3.8898779527559055
0
LINE
8
BLACK
6
CONTINUOUS
10
6.672618110236221
20
-3.8375000000000004
11
6.6607165354330711
21
-3.8732125984251971
0
LINE
8
BLACK
6
CONTINUOUS
10
6.6607165354330711
20
-3.8732125984251971
11
6.6916653543307092
21
-3.8732125984251971
0
LINE
8
BLACK
6
CONTINUOUS
10
6.75
20
-4.
11
6.6000000000000005
21
-4.
0
LINE
8
BLACK
6
CONTINUOUS
10
6.6869055118110241
20
-3.9398779527559058
11
6.6630944881889764
21
-3.9398779527559058
0
LINE
8
BLACK
6
CONTINUOUS
10
6.6630944881889764
20
-3.9398779527559058
11
6.6607165354330711
21
-3.963688976377953
0
LINE
8
BLACK
6
CONTINUOUS
10
6.6607165354330711
20
-3.963688976377953
11
6.6630944881889764
21
-3.9613070866141733
0
LINE
8
BLACK
6
CONTINUOUS
10
6.6630944881889764
20
-3.9613070866141733
11
6.6678582677165359
21
-3.958925196850394
0
LINE
8
BLACK
6
CONTINUOUS
10
6.6678582677165359
20
-3.958925196850394
11
6.6797637795275593
21
-3.958925196850394
0
LINE
8
BLACK
6
CONTINUOUS
10
6.6797637795275593
20
-3.958925196850394
11
6.6845236220472444
21
-3.9613070866141733
0
LINE
8
BLACK
6
CONTINUOUS
10
6.6845236220472444
20
-3.9613070866141733
11
6.6869055118110241
21
-3.963688976377953
0
LINE
8
BLACK
6
CONTINUOUS
10
6.6869055118110241
20
-3.963688976377953
11
6.6892874015748038
21
-3.9684488188976381
0
LINE
8
BLACK
6
CONTINUOUS
10
6.6892874015748038
20
-3.9684488188976381
11
6.6892874015748038
21
-3.9803543307086615
0
LINE
8
BLACK
6
CONTINUOUS
10
6.6892874015748038
20
-3.9803543307086615
11
6.6869055118110241
21
-3.9851181102362205
0
LINE
8
BLACK
6
CONTINUOUS
10
6.6869055118110241
20
-3.9851181102362205
11
6.6845236220472444
21
-3.9875000000000003
0
LINE
8
BLACK
6
CONTINUOUS
10
6.6845236220472444
20
-3.9875000000000003
11
6.6797637795275593
21
-3.9898779527559056
0
LINE
8
BLACK
6
CONTINUOUS
10
6.6797637795275593
20
-3.9898779527559056
11
6.6678582677165359
21
-3.9898779527559056
0
LINE
8
BLACK
6
CONTINUOUS
10
6.6678582677165359
20
-3.9898779527559056
11
6.6630944881889764
21
-3.9875000000000003
0
LINE
8
BLACK
6
CONTINUOUS
10
6.6630944881889764
20
-3.9875000000000003
11
6.6607165354330711
21
-3.9851181102362205
0
LINE
8
BLACK
6
CONTINUOUS
10
6.75
20
-4.1000000000000005
11
6.6000000000000005
21
-4.1000000000000005
0
LINE
8
BLACK
6
CONTINUOUS
10
6.6845236220472444
20
-4.0398779527559059
11
6.6749999999999998
21
-4.0398779527559059
0
LINE
8
BLACK
6
CONTINUOUS
10
6.6749999999999998
20
-4.0398779527559059
11
6.6702401574803156
21
-4.0422598425196856
0
LINE
8
BLACK
6
CONTINUOUS
10
6.6702401574803156
20
-4.0422598425196856
11
6.6678582677165359
21
-4.0446417322834645
0
LINE
8
BLACK
6
CONTINUOUS
10
6.6678582677165359
20
-4.0446417322834645
11
6.6630944881889764
21
-4.0517834645669293
0
LINE
8
BLACK
6
CONTINUOUS
10
6.6630944881889764
20
-4.0517834645669293
11
6.6607165354330711
21
-4.0613070866141729
0
LINE
8
BLACK
6
CONTINUOUS
10
6.6607165354330711
20
-4.0613070866141729
11
6.6607165354330711
21
-4.0803543307086612
0
LINE
8
BLACK
6
CONTINUOUS
10
6.6607165354330711
20
-4.0803543307086612
11
6.6630944881889764
21
-4.0851181102362206
0
LINE
8
BLACK
6
CONTINUOUS
10
6.6630944881889764
20
-4.0851181102362206
11
6.6654763779527562
21
-4.0875000000000004
0
LINE
8
BLACK
6
CONTINUOUS
10
6.6654763779527562
20
-4.0875000000000004
11
6.6702401574803156
21
-4.0898779527559057
0
LINE
8
BLACK
6
CONTINUOUS
10
6.6702401574803156
20
-4.0898779527559057
11
6.6797637795275593
21
-4.0898779527559057
0
LINE
8
BLACK
6
CONTINUOUS
10
6.6797637795275593
20
-4.0898779527559057
11
6.6845236220472444
21
-4.0875000000000004
0
LINE
8
BLACK
6
CONTINUOUS
10
6.6845236220472444
20
-4.0875000000000004
11
6.6869055118110241
21
-4.0851181102362206
0
LINE
8
BLACK
6
CONTINUOUS
10
6.6869055118110241
20
-4.0851181102362206
11
6.6892874015748038
21
-4.0803543307086612
0
LINE
8
BLACK
6
CONTINUOUS
10
6.6892874015748038
20
-4.0803543307086612
11
6.6892874015748038
21
-4.0684488188976378
0
LINE
8
BLACK
6
CONTINUOUS
10
6.6892874015748038
20
-4.0684488188976378
11
6.6869055118110241
21
-4.0636889763779527
0
LINE
8
BLACK
6
CONTINUOUS
10
6.6869055118110241
20
-4.0636889763779527
11
6.6845236220472444
21
-4.0613070866141729
0
LINE
8
BLACK
6
CONTINUOUS
10
6.6845236220472444
20
-4.0613070866141729
11
6.6797637795275593
21
-4.0589251968503941
0
LINE
8
BLACK
6
CONTINUOUS
10
6.6797637795275593
20
-4.0589251968503941
11
6.6702401574803156
21
-4.0589251968503941
0
LINE
8
BLACK
6
CONTINUOUS
10
6.6702401574803156
20
-4.0589251968503941
11
6.6654763779527562
21
-4.0613070866141729
0
LINE
8
BLACK
6
CONTINUOUS
10
6.6654763779527562
20
-4.0613070866141729
11
6.6630944881889764
21
-4.0636889763779527
0
LINE
8
BLACK
6
CONTINUOUS
10
6.6630944881889764
20
-4.0636889763779527
11
6.6607165354330711
21
-4.0684488188976378
0
LINE
8
BLACK
6
CONTINUOUS
10
6.7583307086614175
20
-3.3728031496062991
11
6.7583307086614175
21
-3.4085196850393702
0
LINE
8
BLACK
6
CONTINUOUS
10
6.7583307086614175
20
-3.4085196850393702
11
6.7559488188976378
21
-3.4156614173228346
0
LINE
8
BLACK
6
CONTINUOUS
10
6.7559488188976378
20
-3.4156614173228346
11
6.7511889763779527
21
-3.420425196850394
0
LINE
8
BLACK
6
CONTINUOUS
10
6.7511889763779527
20
-3.420425196850394
11
6.7440433070866144
21
-3.4228031496062994
0
LINE
8
BLACK
6
CONTINUOUS
10
6.7440433070866144
20
-3.4228031496062994
11
6.7392834645669293
21
-3.4228031496062994
0
LINE
8
BLACK
6
CONTINUOUS
10
6.8083307086614173
20
-3.4228031496062994
11
6.7797598425196854
21
-3.4228031496062994
0
LINE
8
BLACK
6
CONTINUOUS
10
6.7940433070866142
20
-3.4228031496062994
11
6.7940433070866142
21
-3.3728031496062991
0
LINE
8
BLACK
6
CONTINUOUS
10
6.7940433070866142
20
-3.3728031496062991
11
6.7892834645669291
21
-3.3799488188976379
0
LINE
8
BLACK
6
CONTINUOUS
10
6.7892834645669291
20
-3.3799488188976379
11
6.7845196850393705
21
-3.384708661417323
0
LINE
8
BLACK
6
CONTINUOUS
10
6.7845196850393705
20
-3.384708661417323
11
6.7797598425196854
21
-3.3870905511811027
0
LINE
8
BLACK
6
CONTINUOUS
10
6.5095236220472446
20
-3.5180433070866144
11
6.5071456692913392
21
-3.5204251968503937
0
LINE
8
BLACK
6
CONTINUOUS
10
6.5071456692913392
20
-3.5204251968503937
11
6.5
21
-3.5228031496062995
0
LINE
8
BLACK
6
CONTINUOUS
10
6.5
20
-3.5228031496062995
11
6.4952401574803149
21
-3.5228031496062995
0
LINE
8
BLACK
6
CONTINUOUS
10
6.4952401574803149
20
-3.5228031496062995
11
6.488098425196851
21
-3.5204251968503937
0
LINE
8
BLACK
6
CONTINUOUS
10
6.488098425196851
20
-3.5204251968503937
11
6.4833346456692915
21
-3.5156614173228347
0
LINE
8
BLACK
6
CONTINUOUS
10
6.4833346456692915
20
-3.5156614173228347
11
6.4809527559055118
21
-3.5108976377952756
0
LINE
8
BLACK
6
CONTINUOUS
10
6.4809527559055118
20
-3.5108976377952756
11
6.4785748031496064
21
-3.5013740157480315
0
LINE
8
BLACK
6
CONTINUOUS
10
6.4785748031496064
20
-3.5013740157480315
11
6.4785748031496064
21
-3.4942322834645672
0
LINE
8
BLACK
6
CONTINUOUS
10
6.4785748031496064
20
-3.4942322834645672
11
6.4809527559055118
21
-3.4847086614173231
0
LINE
8
BLACK
6
CONTINUOUS
10
6.4809527559055118
20
-3.4847086614173231
11
6.4833346456692915
21
-3.479948818897638
0
LINE
8
BLACK
6
CONTINUOUS
10
6.4833346456692915
20
-3.479948818897638
11
6.488098425196851
21
-3.4751850393700789
0
LINE
8
BLACK
6
CONTINUOUS
10
6.488098425196851
20
-3.4751850393700789
11
6.4952401574803149
21
-3.4728031496062992
0
LINE
8
BLACK
6
CONTINUOUS
10
6.4952401574803149
20
-3.4728031496062992
11
6.5
21
-3.4728031496062992
0
LINE
8
BLACK
6
CONTINUOUS
10
6.5
20
-3.4728031496062992
11
6.5071456692913392
21
-3.4751850393700789
0
LINE
8
BLACK
6
CONTINUOUS
10
6.5071456692913392
20
-3.4751850393700789
11
6.5095236220472446
21
-3.4775669291338582
0
LINE
8
BLACK
6
CONTINUOUS
10
6.5380984251968508
20
-3.5228031496062995
11
6.5333346456692913
21
-3.5204251968503937
0
LINE
8
BLACK
6
CONTINUOUS
10
6.5333346456692913
20
-3.5204251968503937
11
6.5309527559055125
21
-3.5180433070866144
0
LINE
8
BLACK
6
CONTINUOUS
10
6.5309527559055125
20
-3.5180433070866144
11
6.5285748031496063
21
-3.5132795275590554
0
LINE
8
BLACK
6
CONTINUOUS
10
6.5285748031496063
20
-3.5132795275590554
11
6.5285748031496063
21
-3.4989960629921262
0
LINE
8
BLACK
6
CONTINUOUS
10
6.5285748031496063
20
-3.4989960629921262
11
6.5309527559055125
21
-3.4942322834645672
0
LINE
8
BLACK
6
CONTINUOUS
10
6.5309527559055125
20
-3.4942322834645672
11
6.5333346456692913
21
-3.4918503937007874
0
LINE
8
BLACK
6
CONTINUOUS
10
6.5333346456692913
20
-3.4918503937007874
11
6.5380984251968508
21
-3.4894724409448821
0
LINE
8
BLACK
6
CONTINUOUS
10
6.5380984251968508
20
-3.4894724409448821
11
6.5452401574803156
21
-3.4894724409448821
0
LINE
8
BLACK
6
CONTINUOUS
10
6.5452401574803156
20
-3.4894724409448821
11
6.5499999999999998
21
-3.4918503937007874
0
LINE
8
BLACK
6
CONTINUOUS
10
6.5499999999999998
20
-3.4918503937007874
11
6.5523818897637796
21
-3.4942322834645672
0
LINE
8
BLACK
6
CONTINUOUS
10
6.5523818897637796
20
-3.4942322834645672
11
6.5547637795275593
21
-3.4989960629921262
0
LINE
8
BLACK
6
CONTINUOUS
10
6.5547637795275593
20
-3.4989960629921262
11
6.5547637795275593
21
-3.5132795275590554
0
LINE
8
BLACK
6
CONTINUOUS
10
6.5547637795275593
20
-3.5132795275590554
11
6.5523818897637796
21
-3.5180433070866144
0
LINE
8
BLACK
6
CONTINUOUS
10
6.5523818897637796
20
-3.5180433070866144
11
6.5499999999999998
21
-3.5204251968503937
0
LINE
8
BLACK
6
CONTINUOUS
10
6.5499999999999998
20
-3.5204251968503937
11
6.5452401574803156
21
-3.5228031496062995
0
LINE
8
BLACK
6
CONTINUOUS
10
6.5452401574803156
20
-3.5228031496062995
11
6.5380984251968508
21
-3.5228031496062995
0
LINE
8
BLACK
6
CONTINUOUS
10
6.5761889763779529
20
-3.4894724409448821
11
6.5761889763779529
21
-3.5228031496062995
0
LINE
8
BLACK
6
CONTINUOUS
10
6.5761889763779529
20
-3.4942322834645672
11
6.5785708661417326
21
-3.4918503937007874
0
LINE
8
BLACK
6
CONTINUOUS
10
6.5785708661417326
20
-3.4918503937007874
11
6.5833346456692912
21
-3.4894724409448821
0
LINE
8
BLACK
6
CONTINUOUS
10
6.5833346456692912
20
-3.4894724409448821
11
6.590476377952756
21
-3.4894724409448821
0
LINE
8
BLACK
6
CONTINUOUS
10
6.590476377952756
20
-3.4894724409448821
11
6.5952362204724411
21
-3.4918503937007874
0
LINE
8
BLACK
6
CONTINUOUS
10
6.5952362204724411
20
-3.4918503937007874
11
6.5976181102362208
21
-3.4966141732283464
0
LINE
8
BLACK
6
CONTINUOUS
10
6.5976181102362208
20
-3.4966141732283464
11
6.5976181102362208
21
-3.5228031496062995
0
LINE
8
BLACK
6
CONTINUOUS
10
6.6214251968503941
20
-3.4894724409448821
11
6.6214251968503941
21
-3.5228031496062995
0
LINE
8
BLACK
6
CONTINUOUS
10
6.6214251968503941
20
-3.4942322834645672
11
6.6238070866141738
21
-3.4918503937007874
0
LINE
8
BLACK
6
CONTINUOUS
10
6.6238070866141738
20
-3.4918503937007874
11
6.6285708661417324
21
-3.4894724409448821
0
LINE
8
BLACK
6
CONTINUOUS
10
6.6285708661417324
20
-3.4894724409448821
11
6.6357125984251972
21
-3.4894724409448821
0
LINE
8
BLACK
6
CONTINUOUS
10
6.6357125984251972
20
-3.4894724409448821
11
6.6404724409448823
21
-3.4918503937007874
0
LINE
8
BLACK
6
CONTINUOUS
10
6.6404724409448823
20
-3.4918503937007874
11
6.642854330708662
21
-3.4966141732283464
0
LINE
8
BLACK
6
CONTINUOUS
10
6.642854330708662
20
-3.4966141732283464
11
6.642854330708662
21
-3.5228031496062995
0
LINE
8
BLACK
6
CONTINUOUS
10
6.6547598425196854
20
-3.5275669291338585
11
6.6928543307086619
21
-3.5275669291338585
0
LINE
8
BLACK
6
CONTINUOUS
10
6.7142795275590554
20
-3.4728031496062992
11
6.719043307086614
21
-3.4728031496062992
0
LINE
8
BLACK
6
CONTINUOUS
10
6.719043307086614
20
-3.4728031496062992
11
6.7238031496062991
21
-3.4751850393700789
0
LINE
8
BLACK
6
CONTINUOUS
10
6.7238031496062991
20
-3.4751850393700789
11
6.7261850393700788
21
-3.4775669291338582
0
LINE
8
BLACK
6
CONTINUOUS
10
6.7261850393700788
20
-3.4775669291338582
11
6.7285669291338586
21
-3.4823267716535433
0
LINE
8
BLACK
6
CONTINUOUS
10
6.7285669291338586
20
-3.4823267716535433
11
6.7309488188976383
21
-3.4918503937007874
0
LINE
8
BLACK
6
CONTINUOUS
10
6.7309488188976383
20
-3.4918503937007874
11
6.7309488188976383
21
-3.5037559055118113
0
LINE
8
BLACK
6
CONTINUOUS
10
6.7309488188976383
20
-3.5037559055118113
11
6.7285669291338586
21
-3.5132795275590554
0
LINE
8
BLACK
6
CONTINUOUS
10
6.7285669291338586
20
-3.5132795275590554
11
6.7261850393700788
21
-3.5180433070866144
0
LINE
8
BLACK
6
CONTINUOUS
10
6.7261850393700788
20
-3.5180433070866144
11
6.7238031496062991
21
-3.5204251968503937
0
LINE
8
BLACK
6
CONTINUOUS
10
6.7238031496062991
20
-3.5204251968503937
11
6.719043307086614
21
-3.5228031496062995
0
LINE
8
BLACK
6
CONTINUOUS
10
6.719043307086614
20
-3.5228031496062995
11
6.7142795275590554
21
-3.5228031496062995
0
LINE
8
BLACK
6
CONTINUOUS
10
6.7142795275590554
20
-3.5228031496062995
11
6.7095196850393704
21
-3.5204251968503937
0
LINE
8
BLACK
6
CONTINUOUS
10
6.7095196850393704
20
-3.5204251968503937
11
6.7071377952755906
21
-3.5180433070866144
0
LINE
8
BLACK
6
CONTINUOUS
10
6.7071377952755906
20
-3.5180433070866144
11
6.7047559055118109
21
-3.5132795275590554
0
LINE
8
BLACK
6
CONTINUOUS
10
6.7047559055118109
20
-3.5132795275590554
11
6.7023779527559055
21
-3.5037559055118113
0
LINE
8
BLACK
6
CONTINUOUS
10
6.7023779527559055
20
-3.5037559055118113
11
6.7023779527559055
21
-3.4918503937007874
0
LINE
8
BLACK
6
CONTINUOUS
10
6.7023779527559055
20
-3.4918503937007874
11
6.7047559055118109
21
-3.4823267716535433
0
LINE
8
BLACK
6
CONTINUOUS
10
6.7047559055118109
20
-3.4823267716535433
11
6.7071377952755906
21
-3.4775669291338582
0
LINE
8
BLACK
6
CONTINUOUS
10
6.7071377952755906
20
-3.4775669291338582
11
6.7095196850393704
21
-3.4751850393700789
0
LINE
8
BLACK
6
CONTINUOUS
10
6.7095196850393704
20
-3.4751850393700789
11
6.7142795275590554
21
-3.4728031496062992
0
LINE
8
BLACK
6
CONTINUOUS
10
6.7785669291338584
20
-3.5228031496062995
11
6.7499960629921265
21
-3.5228031496062995
0
LINE
8
BLACK
6
CONTINUOUS
10
6.7642795275590553
20
-3.5228031496062995
11
6.7642795275590553
21
-3.4728031496062992
0
LINE
8
BLACK
6
CONTINUOUS
10
6.7642795275590553
20
-3.4728031496062992
11
6.7595196850393702
21
-3.479948818897638
0
LINE
8
BLACK
6
CONTINUOUS
10
6.7595196850393702
20
-3.479948818897638
11
6.7547559055118116
21
-3.4847086614173231
0
LINE
8
BLACK
6
CONTINUOUS
10
6.7547559055118116
20
-3.4847086614173231
11
6.7499960629921265
21
-3.4870905511811023
0
LINE
8
BLACK
6
CONTINUOUS
10
6.7952322834645669
20
-3.5228031496062995
11
6.8214212598425199
21
-3.4894724409448821
0
LINE
8
BLACK
6
CONTINUOUS
10
6.7952322834645669
20
-3.4894724409448821
11
6.8214212598425199
21
-3.5228031496062995
0
LINE
8
BLACK
6
CONTINUOUS
10
6.8499921259842527
20
-3.4728031496062992
11
6.8547559055118112
21
-3.4728031496062992
0
LINE
8
BLACK
6
CONTINUOUS
10
6.8547559055118112
20
-3.4728031496062992
11
6.8595157480314963
21
-3.4751850393700789
0
LINE
8
BLACK
6
CONTINUOUS
10
6.8595157480314963
20
-3.4751850393700789
11
6.8618976377952761
21
-3.4775669291338582
0
LINE
8
BLACK
6
CONTINUOUS
10
6.8618976377952761
20
-3.4775669291338582
11
6.8642795275590558
21
-3.4823267716535433
0
LINE
8
BLACK
6
CONTINUOUS
10
6.8642795275590558
20
-3.4823267716535433
11
6.8666614173228346
21
-3.4918503937007874
0
LINE
8
BLACK
6
CONTINUOUS
10
6.8666614173228346
20
-3.4918503937007874
11
6.8666614173228346
21
-3.5037559055118113
0
LINE
8
BLACK
6
CONTINUOUS
10
6.8666614173228346
20
-3.5037559055118113
11
6.8642795275590558
21
-3.5132795275590554
0
LINE
8
BLACK
6
CONTINUOUS
10
6.8642795275590558
20
-3.5132795275590554
11
6.8618976377952761
21
-3.5180433070866144
0
LINE
8
BLACK
6
CONTINUOUS
10
6.8618976377952761
20
-3.5180433070866144
11
6.8595157480314963
21
-3.5204251968503937
0
LINE
8
BLACK
6
CONTINUOUS
10
6.8595157480314963
20
-3.5204251968503937
11
6.8547559055118112
21
-3.5228031496062995
0
LINE
8
BLACK
6
CONTINUOUS
10
6.8547559055118112
20
-3.5228031496062995
11
6.8499921259842527
21
-3.5228031496062995
0
LINE
8
BLACK
6
CONTINUOUS
10
6.8499921259842527
20
-3.5228031496062995
11
6.8452322834645676
21
-3.5204251968503937
0
LINE
8
BLACK
6
CONTINUOUS
10
6.8452322834645676
20
-3.5204251968503937
11
6.8428503937007878
21
-3.5180433070866144
0
LINE
8
BLACK
6
CONTINUOUS
10
6.8428503937007878
20
-3.5180433070866144
11
6.8404685039370081
21
-3.5132795275590554
0
LINE
8
BLACK
6
CONTINUOUS
10
6.8404685039370081
20
-3.5132795275590554
11
6.8380905511811028
21
-3.5037559055118113
0
LINE
8
BLACK
6
CONTINUOUS
10
6.8380905511811028
20
-3.5037559055118113
11
6.8380905511811028
21
-3.4918503937007874
0
LINE
8
BLACK
6
CONTINUOUS
10
6.8380905511811028
20
-3.4918503937007874
11
6.8404685039370081
21
-3.4823267716535433
0
LINE
8
BLACK
6
CONTINUOUS
10
6.8404685039370081
20
-3.4823267716535433
11
6.8428503937007878
21
-3.4775669291338582
0
LINE
8
BLACK
6
CONTINUOUS
10
6.8428503937007878
20
-3.4775669291338582
11
6.8452322834645676
21
-3.4751850393700789
0
LINE
8
BLACK
6
CONTINUOUS
10
6.8452322834645676
20
-3.4751850393700789
11
6.8499921259842527
21
-3.4728031496062992
0
LINE
8
BLACK
6
CONTINUOUS
10
6.9095157480314962
20
-3.4728031496062992
11
6.8999921259842525
21
-3.4728031496062992
0
LINE
8
BLACK
6
CONTINUOUS
10
6.8999921259842525
20
-3.4728031496062992
11
6.8952322834645674
21
-3.4751850393700789
0
LINE
8
BLACK
6
CONTINUOUS
10
6.8952322834645674
20
-3.4751850393700789
11
6.8928503937007877
21
-3.4775669291338582
0
LINE
8
BLACK
6
CONTINUOUS
10
6.8928503937007877
20
-3.4775669291338582
11
6.8880866141732282
21
-3.4847086614173231
0
LINE
8
BLACK
6
CONTINUOUS
10
6.8880866141732282
20
-3.4847086614173231
11
6.8857086614173229
21
-3.4942322834645672
0
LINE
8
BLACK
6
CONTINUOUS
10
6.8857086614173229
20
-3.4942322834645672
11
6.8857086614173229
21
-3.5132795275590554
0
LINE
8
BLACK
6
CONTINUOUS
10
6.8857086614173229
20
-3.5132795275590554
11
6.8880866141732282
21
-3.5180433070866144
0
LINE
8
BLACK
6
CONTINUOUS
10
6.8880866141732282
20
-3.5180433070866144
11
6.8904685039370079
21
-3.5204251968503937
0
LINE
8
BLACK
6
CONTINUOUS
10
6.8904685039370079
20
-3.5204251968503937
11
6.8952322834645674
21
-3.5228031496062995
0
LINE
8
BLACK
6
CONTINUOUS
10
6.8952322834645674
20
-3.5228031496062995
11
6.9047559055118111
21
-3.5228031496062995
0
LINE
8
BLACK
6
CONTINUOUS
10
6.9047559055118111
20
-3.5228031496062995
11
6.9095157480314962
21
-3.5204251968503937
0
LINE
8
BLACK
6
CONTINUOUS
10
6.9095157480314962
20
-3.5204251968503937
11
6.9118976377952759
21
-3.5180433070866144
0
LINE
8
BLACK
6
CONTINUOUS
10
6.9118976377952759
20
-3.5180433070866144
11
6.9142795275590556
21
-3.5132795275590554
0
LINE
8
BLACK
6
CONTINUOUS
10
6.9142795275590556
20
-3.5132795275590554
11
6.9142795275590556
21
-3.5013740157480315
0
LINE
8
BLACK
6
CONTINUOUS
10
6.9142795275590556
20
-3.5013740157480315
11
6.9118976377952759
21
-3.4966141732283464
0
LINE
8
BLACK
6
CONTINUOUS
10
6.9118976377952759
20
-3.4966141732283464
11
6.9095157480314962
21
-3.4942322834645672
0
LINE
8
BLACK
6
CONTINUOUS
10
6.9095157480314962
20
-3.4942322834645672
11
6.9047559055118111
21
-3.4918503937007874
0
LINE
8
BLACK
6
CONTINUOUS
10
6.9047559055118111
20
-3.4918503937007874
11
6.8952322834645674
21
-3.4918503937007874
0
LINE
8
BLACK
6
CONTINUOUS
10
6.8952322834645674
20
-3.4918503937007874
11
6.8904685039370079
21
-3.4942322834645672
0
LINE
8
BLACK
6
CONTINUOUS
10
6.8904685039370079
20
-3.4942322834645672
11
6.8880866141732282
21
-3.4966141732283464
0
LINE
8
BLACK
6
CONTINUOUS
10
6.8880866141732282
20
-3.4966141732283464
11
6.8857086614173229
21
-3.5013740157480315
0
LINE
8
BLACK
6
CONTINUOUS
10
6.9238031496062993
20
-3.5275669291338585
11
6.9618976377952757
21
-3.5275669291338585
0
LINE
8
BLACK
6
CONTINUOUS
10
6.9737992125984256
20
-3.5228031496062995
11
6.9737992125984256
21
-3.4728031496062992
0
LINE
8
BLACK
6
CONTINUOUS
10
6.9737992125984256
20
-3.4728031496062992
11
6.9928464566929138
21
-3.4728031496062992
0
LINE
8
BLACK
6
CONTINUOUS
10
6.9928464566929138
20
-3.4728031496062992
11
6.9976102362204724
21
-3.4751850393700789
0
LINE
8
BLACK
6
CONTINUOUS
10
6.9976102362204724
20
-3.4751850393700789
11
6.9999921259842521
21
-3.4775669291338582
0
LINE
8
BLACK
6
CONTINUOUS
10
6.9999921259842521
20
-3.4775669291338582
11
7.0023700787401575
21
-3.4823267716535433
0
LINE
8
BLACK
6
CONTINUOUS
10
7.0023700787401575
20
-3.4823267716535433
11
7.0023700787401575
21
-3.4894724409448821
0
LINE
8
BLACK
6
CONTINUOUS
10
7.0023700787401575
20
-3.4894724409448821
11
6.9999921259842521
21
-3.4942322834645672
0
LINE
8
BLACK
6
CONTINUOUS
10
6.9999921259842521
20
-3.4942322834645672
11
6.9976102362204724
21
-3.4966141732283464
0
LINE
8
BLACK
6
CONTINUOUS
10
6.9976102362204724
20
-3.4966141732283464
11
6.9928464566929138
21
-3.4989960629921262
0
LINE
8
BLACK
6
CONTINUOUS
10
6.9928464566929138
20
-3.4989960629921262
11
6.9737992125984256
21
-3.4989960629921262
0
LINE
8
BLACK
6
CONTINUOUS
10
7.0237992125984254
20
-3.5228031496062995
11
7.0237992125984254
21
-3.4894724409448821
0
LINE
8
BLACK
6
CONTINUOUS
10
7.0237992125984254
20
-3.4728031496062992
11
7.0214212598425201
21
-3.4751850393700789
0
LINE
8
BLACK
6
CONTINUOUS
10
7.0214212598425201
20
-3.4751850393700789
11
7.0237992125984254
21
-3.4775669291338582
0
LINE
8
BLACK
6
CONTINUOUS
10
7.0237992125984254
20
-3.4775669291338582
11
7.0261811023622052
21
-3.4751850393700789
0
LINE
8
BLACK
6
CONTINUOUS
10
7.0261811023622052
20
-3.4751850393700789
11
7.0237992125984254
21
-3.4728031496062992
0
LINE
8
BLACK
6
CONTINUOUS
10
7.0237992125984254
20
-3.4728031496062992
11
7.0237992125984254
21
-3.4775669291338582
0
LINE
8
BLACK
6
CONTINUOUS
10
7.0476102362204731
20
-3.4894724409448821
11
7.0476102362204731
21
-3.5228031496062995
0
LINE
8
BLACK
6
CONTINUOUS
10
7.0476102362204731
20
-3.4942322834645672
11
7.049992125984252
21
-3.4918503937007874
0
LINE
8
BLACK
6
CONTINUOUS
10
7.049992125984252
20
-3.4918503937007874
11
7.0547559055118114
21
-3.4894724409448821
0
LINE
8
BLACK
6
CONTINUOUS
10
7.0547559055118114
20
-3.4894724409448821
11
7.0618976377952762
21
-3.4894724409448821
0
LINE
8
BLACK
6
CONTINUOUS
10
7.0618976377952762
20
-3.4894724409448821
11
7.0666574803149613
21
-3.4918503937007874
0
LINE
8
BLACK
6
CONTINUOUS
10
7.0666574803149613
20
-3.4918503937007874
11
7.0690393700787402
21
-3.4966141732283464
0
LINE
8
BLACK
6
CONTINUOUS
10
7.0690393700787402
20
-3.4966141732283464
11
7.0690393700787402
21
-3.5228031496062995
0
LINE
8
BLACK
6
CONTINUOUS
10
6.1500000000000004
20
-3.9000000000000004
11
6.6000000000000005
21
-3.9000000000000004
0
LINE
8
BLACK
6
CONTINUOUS
10
6.1500000000000004
20
-3.6000000000000001
11
6.6000000000000005
21
-3.6000000000000001
0
LINE
8
BLACK
6
CONTINUOUS
10
6.1500000000000004
20
-3.8000000000000003
11
6.6000000000000005
21
-3.8000000000000003
0
LINE
8
BLACK
6
CONTINUOUS
10
6.1500000000000004
20
-3.7000000000000002
11
6.6000000000000005
21
-3.7000000000000002
0
LINE
8
BLACK
6
CONTINUOUS
10
5.5499999999999998
20
-4.1000000000000005
11
6.6000000000000005
21
-4.1000000000000005
0
LINE
8
BLACK
6
CONTINUOUS
10
5.4500000000000002
20
-4.
11
6.6000000000000005
21
-4.
0
LINE
8
BLACK
6
CONTINUOUS
10
5.5499999999999998
20
-3.75
11
5.5499999999999998
21
-3.8500000000000001
0
LINE
8
BLACK
6
CONTINUOUS
10
5.5499999999999998
20
-3.8500000000000001
11
5.5499999999999998
21
-4.1000000000000005
0
LINE
8
BLACK
6
CONTINUOUS
10
5.5499999999999998
20
-3.6500000000000004
11
5.4500000000000002
21
-3.6500000000000004
0
LINE
8
BLACK
6
CONTINUOUS
10
5.4500000000000002
20
-3.6500000000000004
11
5.4500000000000002
21
-4.
0
POLYLINE
8
BLACK
66
1
70
1
40
0.018
41
0.018
0
VERTEX
8
BLACK
10
5.5409999999999995
 20
-3.8500000000000001
42
1.0
0
VERTEX
8
BLACK
10
5.5590000000000002
 20
-3.8500000000000001
42
1.0
0
SEQEND
  0
ENDSEC
  0
EOF
