%TF.GenerationSoftware,KiCad,Pcbnew,8.0.1*%
%TF.CreationDate,2024-04-20T16:28:09+12:00*%
%TF.ProjectId,RPi-Connector,5250692d-436f-46e6-9e65-63746f722e6b,rev?*%
%TF.SameCoordinates,Original*%
%TF.FileFunction,Copper,L2,Bot*%
%TF.FilePolarity,Positive*%
%FSLAX46Y46*%
G04 Gerber Fmt 4.6, Leading zero omitted, Abs format (unit mm)*
G04 Created by KiCad (PCBNEW 8.0.1) date 2024-04-20 16:28:09*
%MOMM*%
%LPD*%
G01*
G04 APERTURE LIST*
G04 Aperture macros list*
%AMRoundRect*
0 Rectangle with rounded corners*
0 $1 Rounding radius*
0 $2 $3 $4 $5 $6 $7 $8 $9 X,Y pos of 4 corners*
0 Add a 4 corners polygon primitive as box body*
4,1,4,$2,$3,$4,$5,$6,$7,$8,$9,$2,$3,0*
0 Add four circle primitives for the rounded corners*
1,1,$1+$1,$2,$3*
1,1,$1+$1,$4,$5*
1,1,$1+$1,$6,$7*
1,1,$1+$1,$8,$9*
0 Add four rect primitives between the rounded corners*
20,1,$1+$1,$2,$3,$4,$5,0*
20,1,$1+$1,$4,$5,$6,$7,0*
20,1,$1+$1,$6,$7,$8,$9,0*
20,1,$1+$1,$8,$9,$2,$3,0*%
G04 Aperture macros list end*
%TA.AperFunction,ComponentPad*%
%ADD10RoundRect,0.250000X0.625000X-0.350000X0.625000X0.350000X-0.625000X0.350000X-0.625000X-0.350000X0*%
%TD*%
%TA.AperFunction,ComponentPad*%
%ADD11O,1.750000X1.200000*%
%TD*%
%TA.AperFunction,ComponentPad*%
%ADD12RoundRect,0.250000X0.350000X0.625000X-0.350000X0.625000X-0.350000X-0.625000X0.350000X-0.625000X0*%
%TD*%
%TA.AperFunction,ComponentPad*%
%ADD13O,1.200000X1.750000*%
%TD*%
%TA.AperFunction,ComponentPad*%
%ADD14O,1.600000X2.540000*%
%TD*%
%TA.AperFunction,Conductor*%
%ADD15C,0.200000*%
%TD*%
G04 APERTURE END LIST*
D10*
%TO.P,PWR1,1,Pin_1*%
%TO.N,/GND*%
X170180000Y-83312000D03*
D11*
%TO.P,PWR1,2,Pin_2*%
%TO.N,unconnected-(PWR1-Pin_2-Pad2)*%
X170180000Y-81312000D03*
%TO.P,PWR1,3,Pin_3*%
%TO.N,/VBUS*%
X170180000Y-79312000D03*
%TD*%
D10*
%TO.P,J8,1,Pin_1*%
%TO.N,Net-(J8-Pin_1)*%
X155956000Y-83312000D03*
D11*
%TO.P,J8,2,Pin_2*%
%TO.N,Net-(J8-Pin_2)*%
X155956000Y-81312000D03*
%TO.P,J8,3,Pin_3*%
%TO.N,/GND*%
X155956000Y-79312000D03*
%TD*%
D10*
%TO.P,J7,1,Pin_1*%
%TO.N,Net-(J7-Pin_1)*%
X141732000Y-83312000D03*
D11*
%TO.P,J7,2,Pin_2*%
%TO.N,Net-(J7-Pin_2)*%
X141732000Y-81312000D03*
%TO.P,J7,3,Pin_3*%
%TO.N,Net-(J6-Pin_3)*%
X141732000Y-79312000D03*
%TD*%
D10*
%TO.P,J6,1,Pin_1*%
%TO.N,Net-(J6-Pin_1)*%
X134620000Y-83312000D03*
D11*
%TO.P,J6,2,Pin_2*%
%TO.N,Net-(J6-Pin_2)*%
X134620000Y-81312000D03*
%TO.P,J6,3,Pin_3*%
%TO.N,Net-(J6-Pin_3)*%
X134620000Y-79312000D03*
%TD*%
D10*
%TO.P,J5,1,Pin_1*%
%TO.N,Net-(J5-Pin_1)*%
X127508000Y-83248000D03*
D11*
%TO.P,J5,2,Pin_2*%
%TO.N,Net-(J5-Pin_2)*%
X127508000Y-81248000D03*
%TO.P,J5,3,Pin_3*%
%TO.N,Net-(J4-Pin_3)*%
X127508000Y-79248000D03*
%TD*%
D12*
%TO.P,J4,1,Pin_1*%
%TO.N,Net-(J4-Pin_1)*%
X130556000Y-89154000D03*
D13*
%TO.P,J4,2,Pin_2*%
%TO.N,Net-(J4-Pin_2)*%
X128556000Y-89154000D03*
%TO.P,J4,3,Pin_3*%
%TO.N,Net-(J4-Pin_3)*%
X126556000Y-89154000D03*
%TD*%
D12*
%TO.P,J2,1,Pin_1*%
%TO.N,Net-(J2-Pin_1)*%
X155702000Y-89154000D03*
D13*
%TO.P,J2,2,Pin_2*%
%TO.N,Net-(J2-Pin_2)*%
X153702000Y-89154000D03*
%TO.P,J2,3,Pin_3*%
%TO.N,Net-(J2-Pin_3)*%
X151702000Y-89154000D03*
%TO.P,J2,4,Pin_4*%
%TO.N,Net-(J2-Pin_4)*%
X149702000Y-89154000D03*
%TO.P,J2,5,Pin_5*%
%TO.N,Net-(J2-Pin_5)*%
X147702000Y-89154000D03*
%TO.P,J2,6,Pin_6*%
%TO.N,Net-(J2-Pin_6)*%
X145702000Y-89154000D03*
%TD*%
D10*
%TO.P,I2C1,1,Pin_1*%
%TO.N,/SDA*%
X148844000Y-83312000D03*
D11*
%TO.P,I2C1,2,Pin_2*%
%TO.N,/SCL*%
X148844000Y-81312000D03*
%TO.P,I2C1,3,Pin_3*%
%TO.N,Net-(I2C1-Pin_3)*%
X148844000Y-79312000D03*
%TD*%
D10*
%TO.P,ALG1,1,Pin_1*%
%TO.N,/ADC0*%
X163068000Y-83312000D03*
D11*
%TO.P,ALG1,2,Pin_2*%
%TO.N,/ADC1*%
X163068000Y-81312000D03*
%TO.P,ALG1,3,Pin_3*%
%TO.N,Net-(ALG1-Pin_3)*%
X163068000Y-79312000D03*
%TD*%
D14*
%TO.P,U1,1,GP0*%
%TO.N,Net-(J1-Pin_1)*%
X173000000Y-93000000D03*
%TO.P,U1,2,GP1*%
%TO.N,Net-(J1-Pin_2)*%
X170460000Y-93000000D03*
%TO.P,U1,3,GND*%
%TO.N,Net-(J1-Pin_6)*%
X167920000Y-93000000D03*
%TO.P,U1,4,GP2*%
%TO.N,Net-(J1-Pin_3)*%
X165380000Y-93000000D03*
%TO.P,U1,5,GP3*%
%TO.N,Net-(J1-Pin_4)*%
X162840000Y-93000000D03*
%TO.P,U1,6,GP4*%
%TO.N,Net-(J1-Pin_5)*%
X160300000Y-93000000D03*
%TO.P,U1,7,GP5*%
%TO.N,Net-(J2-Pin_1)*%
X157760000Y-93000000D03*
%TO.P,U1,8,GND*%
%TO.N,unconnected-(U1-GND-Pad8)*%
X155220000Y-93000000D03*
%TO.P,U1,9,GP6*%
%TO.N,Net-(J2-Pin_2)*%
X152680000Y-93000000D03*
%TO.P,U1,10,GP7*%
%TO.N,Net-(J2-Pin_3)*%
X150140000Y-93000000D03*
%TO.P,U1,11,GP8*%
%TO.N,Net-(J2-Pin_4)*%
X147600000Y-93000000D03*
%TO.P,U1,12,GP9*%
%TO.N,Net-(J2-Pin_5)*%
X145060000Y-93000000D03*
%TO.P,U1,13,GND*%
%TO.N,Net-(J2-Pin_6)*%
X142520000Y-93000000D03*
%TO.P,U1,14,GP10*%
%TO.N,Net-(J3-Pin_1)*%
X139980000Y-93000000D03*
%TO.P,U1,15,GP11*%
%TO.N,Net-(J3-Pin_2)*%
X137440000Y-93000000D03*
%TO.P,U1,16,GP12*%
%TO.N,Net-(J4-Pin_1)*%
X134900000Y-93000000D03*
%TO.P,U1,17,GP13*%
%TO.N,Net-(J4-Pin_2)*%
X132360000Y-93000000D03*
%TO.P,U1,18,GND*%
%TO.N,Net-(J4-Pin_3)*%
X129820000Y-93000000D03*
%TO.P,U1,19,GP14*%
%TO.N,Net-(J5-Pin_1)*%
X127280000Y-93000000D03*
%TO.P,U1,20,GP15*%
%TO.N,Net-(J5-Pin_2)*%
X124740000Y-93000000D03*
%TO.P,U1,21,GP16*%
%TO.N,Net-(J6-Pin_1)*%
X124740000Y-75220000D03*
%TO.P,U1,22,GP17*%
%TO.N,Net-(J6-Pin_2)*%
X127280000Y-75220000D03*
%TO.P,U1,23,GND*%
%TO.N,Net-(J6-Pin_3)*%
X129820000Y-75220000D03*
%TO.P,U1,24,GP18*%
%TO.N,Net-(J7-Pin_1)*%
X132360000Y-75220000D03*
%TO.P,U1,25,GP19*%
%TO.N,Net-(J7-Pin_2)*%
X134900000Y-75220000D03*
%TO.P,U1,26,GP20*%
%TO.N,/SDA*%
X137440000Y-75220000D03*
%TO.P,U1,27,GP21*%
%TO.N,/SCL*%
X139980000Y-75220000D03*
%TO.P,U1,28,GND*%
%TO.N,Net-(I2C1-Pin_3)*%
X142520000Y-75220000D03*
%TO.P,U1,29,GP22*%
%TO.N,Net-(J8-Pin_1)*%
X145060000Y-75220000D03*
%TO.P,U1,30,RUN*%
%TO.N,unconnected-(U1-RUN-Pad30)*%
X147600000Y-75220000D03*
%TO.P,U1,31,GP26*%
%TO.N,/ADC0*%
X150140000Y-75220000D03*
%TO.P,U1,32,GP27*%
%TO.N,/ADC1*%
X152680000Y-75220000D03*
%TO.P,U1,33,GND*%
%TO.N,Net-(ALG1-Pin_3)*%
X155220000Y-75220000D03*
%TO.P,U1,34,GP28*%
%TO.N,Net-(J8-Pin_2)*%
X157760000Y-75220000D03*
%TO.P,U1,35,ADC_VREF*%
%TO.N,unconnected-(U1-ADC_VREF-Pad35)*%
X160300000Y-75220000D03*
%TO.P,U1,36,3V3(OUT)*%
%TO.N,unconnected-(U1-3V3(OUT)-Pad36)*%
X162840000Y-75220000D03*
%TO.P,U1,37,3V3_EN*%
%TO.N,unconnected-(U1-3V3_EN-Pad37)*%
X165380000Y-75220000D03*
%TO.P,U1,38,GND*%
%TO.N,/GND*%
X167920000Y-75220000D03*
%TO.P,U1,39,VSYS*%
%TO.N,unconnected-(U1-VSYS-Pad39)*%
X170460000Y-75220000D03*
%TO.P,U1,40,VBUS*%
%TO.N,/VBUS*%
X173000000Y-75220000D03*
%TD*%
D12*
%TO.P,J1,1,Pin_1*%
%TO.N,Net-(J1-Pin_1)*%
X171164000Y-89154000D03*
D13*
%TO.P,J1,2,Pin_2*%
%TO.N,Net-(J1-Pin_2)*%
X169164000Y-89154000D03*
%TO.P,J1,3,Pin_3*%
%TO.N,Net-(J1-Pin_3)*%
X167164000Y-89154000D03*
%TO.P,J1,4,Pin_4*%
%TO.N,Net-(J1-Pin_4)*%
X165164000Y-89154000D03*
%TO.P,J1,5,Pin_5*%
%TO.N,Net-(J1-Pin_5)*%
X163164000Y-89154000D03*
%TO.P,J1,6,Pin_6*%
%TO.N,Net-(J1-Pin_6)*%
X161164000Y-89154000D03*
%TD*%
D12*
%TO.P,J3,1,Pin_1*%
%TO.N,Net-(J3-Pin_1)*%
X140208000Y-89154000D03*
D13*
%TO.P,J3,2,Pin_2*%
%TO.N,Net-(J3-Pin_2)*%
X138208000Y-89154000D03*
%TO.P,J3,3,Pin_3*%
%TO.N,Net-(J2-Pin_6)*%
X136208000Y-89154000D03*
%TD*%
D15*
%TO.N,/ADC0*%
X163068000Y-84582000D02*
X163068000Y-83312000D01*
X162560000Y-85090000D02*
X163068000Y-84582000D01*
X154178000Y-85090000D02*
X162560000Y-85090000D01*
X152908000Y-83820000D02*
X154178000Y-85090000D01*
X152908000Y-78486000D02*
X152908000Y-83820000D01*
X150140000Y-75718000D02*
X152908000Y-78486000D01*
X150140000Y-75220000D02*
X150140000Y-75718000D01*
%TO.N,/ADC1*%
X161830000Y-81312000D02*
X163068000Y-81312000D01*
X154686000Y-77724000D02*
X158242000Y-77724000D01*
X158242000Y-77724000D02*
X161830000Y-81312000D01*
X152680000Y-75718000D02*
X154686000Y-77724000D01*
X152680000Y-75220000D02*
X152680000Y-75718000D01*
%TO.N,Net-(ALG1-Pin_3)*%
X161608000Y-79312000D02*
X163068000Y-79312000D01*
X159258000Y-76962000D02*
X161608000Y-79312000D01*
X156464000Y-76962000D02*
X159258000Y-76962000D01*
X155220000Y-75718000D02*
X156464000Y-76962000D01*
X155220000Y-75220000D02*
X155220000Y-75718000D01*
%TO.N,Net-(I2C1-Pin_3)*%
X144336000Y-79312000D02*
X148844000Y-79312000D01*
X142520000Y-77496000D02*
X144336000Y-79312000D01*
X142520000Y-75220000D02*
X142520000Y-77496000D01*
%TO.N,Net-(J6-Pin_3)*%
X134620000Y-79312000D02*
X141732000Y-79312000D01*
%TO.N,Net-(J5-Pin_1)*%
X126048000Y-83248000D02*
X127508000Y-83248000D01*
X125222000Y-84074000D02*
X126048000Y-83248000D01*
X125222000Y-90424000D02*
X125222000Y-84074000D01*
X127280000Y-93000000D02*
X127280000Y-92482000D01*
X127280000Y-92482000D02*
X125222000Y-90424000D01*
%TO.N,Net-(J2-Pin_6)*%
X142520000Y-91466000D02*
X142520000Y-93000000D01*
X141732000Y-90678000D02*
X142520000Y-91466000D01*
X137414000Y-90678000D02*
X141732000Y-90678000D01*
X136208000Y-89154000D02*
X136208000Y-89472000D01*
X136208000Y-89472000D02*
X137414000Y-90678000D01*
%TO.N,Net-(J1-Pin_6)*%
X162306000Y-90678000D02*
X166370000Y-90678000D01*
X161164000Y-89536000D02*
X162306000Y-90678000D01*
X166370000Y-90678000D02*
X167920000Y-92228000D01*
X167920000Y-92228000D02*
X167920000Y-93000000D01*
X161164000Y-89154000D02*
X161164000Y-89536000D01*
%TD*%
M02*
