%TF.GenerationSoftware,KiCad,Pcbnew,8.0.1*%
%TF.CreationDate,2024-04-20T16:28:09+12:00*%
%TF.ProjectId,RPi-Connector,5250692d-436f-46e6-9e65-63746f722e6b,rev?*%
%TF.SameCoordinates,Original*%
%TF.FileFunction,Soldermask,Bot*%
%TF.FilePolarity,Negative*%
%FSLAX46Y46*%
G04 Gerber Fmt 4.6, Leading zero omitted, Abs format (unit mm)*
G04 Created by KiCad (PCBNEW 8.0.1) date 2024-04-20 16:28:09*
%MOMM*%
%LPD*%
G01*
G04 APERTURE LIST*
G04 Aperture macros list*
%AMRoundRect*
0 Rectangle with rounded corners*
0 $1 Rounding radius*
0 $2 $3 $4 $5 $6 $7 $8 $9 X,Y pos of 4 corners*
0 Add a 4 corners polygon primitive as box body*
4,1,4,$2,$3,$4,$5,$6,$7,$8,$9,$2,$3,0*
0 Add four circle primitives for the rounded corners*
1,1,$1+$1,$2,$3*
1,1,$1+$1,$4,$5*
1,1,$1+$1,$6,$7*
1,1,$1+$1,$8,$9*
0 Add four rect primitives between the rounded corners*
20,1,$1+$1,$2,$3,$4,$5,0*
20,1,$1+$1,$4,$5,$6,$7,0*
20,1,$1+$1,$6,$7,$8,$9,0*
20,1,$1+$1,$8,$9,$2,$3,0*%
G04 Aperture macros list end*
%ADD10RoundRect,0.250000X0.625000X-0.350000X0.625000X0.350000X-0.625000X0.350000X-0.625000X-0.350000X0*%
%ADD11O,1.750000X1.200000*%
%ADD12RoundRect,0.250000X0.350000X0.625000X-0.350000X0.625000X-0.350000X-0.625000X0.350000X-0.625000X0*%
%ADD13O,1.200000X1.750000*%
%ADD14O,1.600000X2.540000*%
G04 APERTURE END LIST*
D10*
%TO.C,PWR1*%
X170180000Y-83312000D03*
D11*
X170180000Y-81312000D03*
X170180000Y-79312000D03*
%TD*%
D10*
%TO.C,J8*%
X155956000Y-83312000D03*
D11*
X155956000Y-81312000D03*
X155956000Y-79312000D03*
%TD*%
D10*
%TO.C,J7*%
X141732000Y-83312000D03*
D11*
X141732000Y-81312000D03*
X141732000Y-79312000D03*
%TD*%
D10*
%TO.C,J6*%
X134620000Y-83312000D03*
D11*
X134620000Y-81312000D03*
X134620000Y-79312000D03*
%TD*%
D10*
%TO.C,J5*%
X127508000Y-83248000D03*
D11*
X127508000Y-81248000D03*
X127508000Y-79248000D03*
%TD*%
D12*
%TO.C,J4*%
X130556000Y-89154000D03*
D13*
X128556000Y-89154000D03*
X126556000Y-89154000D03*
%TD*%
D12*
%TO.C,J2*%
X155702000Y-89154000D03*
D13*
X153702000Y-89154000D03*
X151702000Y-89154000D03*
X149702000Y-89154000D03*
X147702000Y-89154000D03*
X145702000Y-89154000D03*
%TD*%
D10*
%TO.C,I2C1*%
X148844000Y-83312000D03*
D11*
X148844000Y-81312000D03*
X148844000Y-79312000D03*
%TD*%
D10*
%TO.C,ALG1*%
X163068000Y-83312000D03*
D11*
X163068000Y-81312000D03*
X163068000Y-79312000D03*
%TD*%
D14*
%TO.C,U1*%
X173000000Y-93000000D03*
X170460000Y-93000000D03*
X167920000Y-93000000D03*
X165380000Y-93000000D03*
X162840000Y-93000000D03*
X160300000Y-93000000D03*
X157760000Y-93000000D03*
X155220000Y-93000000D03*
X152680000Y-93000000D03*
X150140000Y-93000000D03*
X147600000Y-93000000D03*
X145060000Y-93000000D03*
X142520000Y-93000000D03*
X139980000Y-93000000D03*
X137440000Y-93000000D03*
X134900000Y-93000000D03*
X132360000Y-93000000D03*
X129820000Y-93000000D03*
X127280000Y-93000000D03*
X124740000Y-93000000D03*
X124740000Y-75220000D03*
X127280000Y-75220000D03*
X129820000Y-75220000D03*
X132360000Y-75220000D03*
X134900000Y-75220000D03*
X137440000Y-75220000D03*
X139980000Y-75220000D03*
X142520000Y-75220000D03*
X145060000Y-75220000D03*
X147600000Y-75220000D03*
X150140000Y-75220000D03*
X152680000Y-75220000D03*
X155220000Y-75220000D03*
X157760000Y-75220000D03*
X160300000Y-75220000D03*
X162840000Y-75220000D03*
X165380000Y-75220000D03*
X167920000Y-75220000D03*
X170460000Y-75220000D03*
X173000000Y-75220000D03*
%TD*%
D12*
%TO.C,J1*%
X171164000Y-89154000D03*
D13*
X169164000Y-89154000D03*
X167164000Y-89154000D03*
X165164000Y-89154000D03*
X163164000Y-89154000D03*
X161164000Y-89154000D03*
%TD*%
D12*
%TO.C,J3*%
X140208000Y-89154000D03*
D13*
X138208000Y-89154000D03*
X136208000Y-89154000D03*
%TD*%
M02*
