%TF.GenerationSoftware,KiCad,Pcbnew,8.0.1*%
%TF.CreationDate,2024-04-20T16:28:09+12:00*%
%TF.ProjectId,RPi-Connector,5250692d-436f-46e6-9e65-63746f722e6b,rev?*%
%TF.SameCoordinates,Original*%
%TF.FileFunction,Copper,L1,Top*%
%TF.FilePolarity,Positive*%
%FSLAX46Y46*%
G04 Gerber Fmt 4.6, Leading zero omitted, Abs format (unit mm)*
G04 Created by KiCad (PCBNEW 8.0.1) date 2024-04-20 16:28:09*
%MOMM*%
%LPD*%
G01*
G04 APERTURE LIST*
G04 Aperture macros list*
%AMRoundRect*
0 Rectangle with rounded corners*
0 $1 Rounding radius*
0 $2 $3 $4 $5 $6 $7 $8 $9 X,Y pos of 4 corners*
0 Add a 4 corners polygon primitive as box body*
4,1,4,$2,$3,$4,$5,$6,$7,$8,$9,$2,$3,0*
0 Add four circle primitives for the rounded corners*
1,1,$1+$1,$2,$3*
1,1,$1+$1,$4,$5*
1,1,$1+$1,$6,$7*
1,1,$1+$1,$8,$9*
0 Add four rect primitives between the rounded corners*
20,1,$1+$1,$2,$3,$4,$5,0*
20,1,$1+$1,$4,$5,$6,$7,0*
20,1,$1+$1,$6,$7,$8,$9,0*
20,1,$1+$1,$8,$9,$2,$3,0*%
G04 Aperture macros list end*
%TA.AperFunction,ComponentPad*%
%ADD10RoundRect,0.250000X0.625000X-0.350000X0.625000X0.350000X-0.625000X0.350000X-0.625000X-0.350000X0*%
%TD*%
%TA.AperFunction,ComponentPad*%
%ADD11O,1.750000X1.200000*%
%TD*%
%TA.AperFunction,ComponentPad*%
%ADD12RoundRect,0.250000X0.350000X0.625000X-0.350000X0.625000X-0.350000X-0.625000X0.350000X-0.625000X0*%
%TD*%
%TA.AperFunction,ComponentPad*%
%ADD13O,1.200000X1.750000*%
%TD*%
%TA.AperFunction,ComponentPad*%
%ADD14O,1.600000X2.540000*%
%TD*%
%TA.AperFunction,Conductor*%
%ADD15C,0.200000*%
%TD*%
G04 APERTURE END LIST*
D10*
%TO.P,PWR1,1,Pin_1*%
%TO.N,/GND*%
X170180000Y-83312000D03*
D11*
%TO.P,PWR1,2,Pin_2*%
%TO.N,unconnected-(PWR1-Pin_2-Pad2)*%
X170180000Y-81312000D03*
%TO.P,PWR1,3,Pin_3*%
%TO.N,/VBUS*%
X170180000Y-79312000D03*
%TD*%
D10*
%TO.P,J8,1,Pin_1*%
%TO.N,Net-(J8-Pin_1)*%
X155956000Y-83312000D03*
D11*
%TO.P,J8,2,Pin_2*%
%TO.N,Net-(J8-Pin_2)*%
X155956000Y-81312000D03*
%TO.P,J8,3,Pin_3*%
%TO.N,/GND*%
X155956000Y-79312000D03*
%TD*%
D10*
%TO.P,J7,1,Pin_1*%
%TO.N,Net-(J7-Pin_1)*%
X141732000Y-83312000D03*
D11*
%TO.P,J7,2,Pin_2*%
%TO.N,Net-(J7-Pin_2)*%
X141732000Y-81312000D03*
%TO.P,J7,3,Pin_3*%
%TO.N,Net-(J6-Pin_3)*%
X141732000Y-79312000D03*
%TD*%
D10*
%TO.P,J6,1,Pin_1*%
%TO.N,Net-(J6-Pin_1)*%
X134620000Y-83312000D03*
D11*
%TO.P,J6,2,Pin_2*%
%TO.N,Net-(J6-Pin_2)*%
X134620000Y-81312000D03*
%TO.P,J6,3,Pin_3*%
%TO.N,Net-(J6-Pin_3)*%
X134620000Y-79312000D03*
%TD*%
D10*
%TO.P,J5,1,Pin_1*%
%TO.N,Net-(J5-Pin_1)*%
X127508000Y-83248000D03*
D11*
%TO.P,J5,2,Pin_2*%
%TO.N,Net-(J5-Pin_2)*%
X127508000Y-81248000D03*
%TO.P,J5,3,Pin_3*%
%TO.N,Net-(J4-Pin_3)*%
X127508000Y-79248000D03*
%TD*%
D12*
%TO.P,J4,1,Pin_1*%
%TO.N,Net-(J4-Pin_1)*%
X130556000Y-89154000D03*
D13*
%TO.P,J4,2,Pin_2*%
%TO.N,Net-(J4-Pin_2)*%
X128556000Y-89154000D03*
%TO.P,J4,3,Pin_3*%
%TO.N,Net-(J4-Pin_3)*%
X126556000Y-89154000D03*
%TD*%
D12*
%TO.P,J2,1,Pin_1*%
%TO.N,Net-(J2-Pin_1)*%
X155702000Y-89154000D03*
D13*
%TO.P,J2,2,Pin_2*%
%TO.N,Net-(J2-Pin_2)*%
X153702000Y-89154000D03*
%TO.P,J2,3,Pin_3*%
%TO.N,Net-(J2-Pin_3)*%
X151702000Y-89154000D03*
%TO.P,J2,4,Pin_4*%
%TO.N,Net-(J2-Pin_4)*%
X149702000Y-89154000D03*
%TO.P,J2,5,Pin_5*%
%TO.N,Net-(J2-Pin_5)*%
X147702000Y-89154000D03*
%TO.P,J2,6,Pin_6*%
%TO.N,Net-(J2-Pin_6)*%
X145702000Y-89154000D03*
%TD*%
D10*
%TO.P,I2C1,1,Pin_1*%
%TO.N,/SDA*%
X148844000Y-83312000D03*
D11*
%TO.P,I2C1,2,Pin_2*%
%TO.N,/SCL*%
X148844000Y-81312000D03*
%TO.P,I2C1,3,Pin_3*%
%TO.N,Net-(I2C1-Pin_3)*%
X148844000Y-79312000D03*
%TD*%
D10*
%TO.P,ALG1,1,Pin_1*%
%TO.N,/ADC0*%
X163068000Y-83312000D03*
D11*
%TO.P,ALG1,2,Pin_2*%
%TO.N,/ADC1*%
X163068000Y-81312000D03*
%TO.P,ALG1,3,Pin_3*%
%TO.N,Net-(ALG1-Pin_3)*%
X163068000Y-79312000D03*
%TD*%
D14*
%TO.P,U1,1,GP0*%
%TO.N,Net-(J1-Pin_1)*%
X173000000Y-93000000D03*
%TO.P,U1,2,GP1*%
%TO.N,Net-(J1-Pin_2)*%
X170460000Y-93000000D03*
%TO.P,U1,3,GND*%
%TO.N,Net-(J1-Pin_6)*%
X167920000Y-93000000D03*
%TO.P,U1,4,GP2*%
%TO.N,Net-(J1-Pin_3)*%
X165380000Y-93000000D03*
%TO.P,U1,5,GP3*%
%TO.N,Net-(J1-Pin_4)*%
X162840000Y-93000000D03*
%TO.P,U1,6,GP4*%
%TO.N,Net-(J1-Pin_5)*%
X160300000Y-93000000D03*
%TO.P,U1,7,GP5*%
%TO.N,Net-(J2-Pin_1)*%
X157760000Y-93000000D03*
%TO.P,U1,8,GND*%
%TO.N,unconnected-(U1-GND-Pad8)*%
X155220000Y-93000000D03*
%TO.P,U1,9,GP6*%
%TO.N,Net-(J2-Pin_2)*%
X152680000Y-93000000D03*
%TO.P,U1,10,GP7*%
%TO.N,Net-(J2-Pin_3)*%
X150140000Y-93000000D03*
%TO.P,U1,11,GP8*%
%TO.N,Net-(J2-Pin_4)*%
X147600000Y-93000000D03*
%TO.P,U1,12,GP9*%
%TO.N,Net-(J2-Pin_5)*%
X145060000Y-93000000D03*
%TO.P,U1,13,GND*%
%TO.N,Net-(J2-Pin_6)*%
X142520000Y-93000000D03*
%TO.P,U1,14,GP10*%
%TO.N,Net-(J3-Pin_1)*%
X139980000Y-93000000D03*
%TO.P,U1,15,GP11*%
%TO.N,Net-(J3-Pin_2)*%
X137440000Y-93000000D03*
%TO.P,U1,16,GP12*%
%TO.N,Net-(J4-Pin_1)*%
X134900000Y-93000000D03*
%TO.P,U1,17,GP13*%
%TO.N,Net-(J4-Pin_2)*%
X132360000Y-93000000D03*
%TO.P,U1,18,GND*%
%TO.N,Net-(J4-Pin_3)*%
X129820000Y-93000000D03*
%TO.P,U1,19,GP14*%
%TO.N,Net-(J5-Pin_1)*%
X127280000Y-93000000D03*
%TO.P,U1,20,GP15*%
%TO.N,Net-(J5-Pin_2)*%
X124740000Y-93000000D03*
%TO.P,U1,21,GP16*%
%TO.N,Net-(J6-Pin_1)*%
X124740000Y-75220000D03*
%TO.P,U1,22,GP17*%
%TO.N,Net-(J6-Pin_2)*%
X127280000Y-75220000D03*
%TO.P,U1,23,GND*%
%TO.N,Net-(J6-Pin_3)*%
X129820000Y-75220000D03*
%TO.P,U1,24,GP18*%
%TO.N,Net-(J7-Pin_1)*%
X132360000Y-75220000D03*
%TO.P,U1,25,GP19*%
%TO.N,Net-(J7-Pin_2)*%
X134900000Y-75220000D03*
%TO.P,U1,26,GP20*%
%TO.N,/SDA*%
X137440000Y-75220000D03*
%TO.P,U1,27,GP21*%
%TO.N,/SCL*%
X139980000Y-75220000D03*
%TO.P,U1,28,GND*%
%TO.N,Net-(I2C1-Pin_3)*%
X142520000Y-75220000D03*
%TO.P,U1,29,GP22*%
%TO.N,Net-(J8-Pin_1)*%
X145060000Y-75220000D03*
%TO.P,U1,30,RUN*%
%TO.N,unconnected-(U1-RUN-Pad30)*%
X147600000Y-75220000D03*
%TO.P,U1,31,GP26*%
%TO.N,/ADC0*%
X150140000Y-75220000D03*
%TO.P,U1,32,GP27*%
%TO.N,/ADC1*%
X152680000Y-75220000D03*
%TO.P,U1,33,GND*%
%TO.N,Net-(ALG1-Pin_3)*%
X155220000Y-75220000D03*
%TO.P,U1,34,GP28*%
%TO.N,Net-(J8-Pin_2)*%
X157760000Y-75220000D03*
%TO.P,U1,35,ADC_VREF*%
%TO.N,unconnected-(U1-ADC_VREF-Pad35)*%
X160300000Y-75220000D03*
%TO.P,U1,36,3V3(OUT)*%
%TO.N,unconnected-(U1-3V3(OUT)-Pad36)*%
X162840000Y-75220000D03*
%TO.P,U1,37,3V3_EN*%
%TO.N,unconnected-(U1-3V3_EN-Pad37)*%
X165380000Y-75220000D03*
%TO.P,U1,38,GND*%
%TO.N,/GND*%
X167920000Y-75220000D03*
%TO.P,U1,39,VSYS*%
%TO.N,unconnected-(U1-VSYS-Pad39)*%
X170460000Y-75220000D03*
%TO.P,U1,40,VBUS*%
%TO.N,/VBUS*%
X173000000Y-75220000D03*
%TD*%
D12*
%TO.P,J1,1,Pin_1*%
%TO.N,Net-(J1-Pin_1)*%
X171164000Y-89154000D03*
D13*
%TO.P,J1,2,Pin_2*%
%TO.N,Net-(J1-Pin_2)*%
X169164000Y-89154000D03*
%TO.P,J1,3,Pin_3*%
%TO.N,Net-(J1-Pin_3)*%
X167164000Y-89154000D03*
%TO.P,J1,4,Pin_4*%
%TO.N,Net-(J1-Pin_4)*%
X165164000Y-89154000D03*
%TO.P,J1,5,Pin_5*%
%TO.N,Net-(J1-Pin_5)*%
X163164000Y-89154000D03*
%TO.P,J1,6,Pin_6*%
%TO.N,Net-(J1-Pin_6)*%
X161164000Y-89154000D03*
%TD*%
D12*
%TO.P,J3,1,Pin_1*%
%TO.N,Net-(J3-Pin_1)*%
X140208000Y-89154000D03*
D13*
%TO.P,J3,2,Pin_2*%
%TO.N,Net-(J3-Pin_2)*%
X138208000Y-89154000D03*
%TO.P,J3,3,Pin_3*%
%TO.N,Net-(J2-Pin_6)*%
X136208000Y-89154000D03*
%TD*%
D15*
%TO.N,/VBUS*%
X173000000Y-78460000D02*
X173000000Y-75220000D01*
X172148000Y-79312000D02*
X173000000Y-78460000D01*
X170180000Y-79312000D02*
X172148000Y-79312000D01*
%TO.N,/GND*%
X167132000Y-82042000D02*
X168402000Y-83312000D01*
X168402000Y-83312000D02*
X170180000Y-83312000D01*
X167132000Y-77470000D02*
X167132000Y-82042000D01*
%TO.N,Net-(J8-Pin_2)*%
X157760000Y-76936000D02*
X157760000Y-75220000D01*
X155194000Y-77470000D02*
X157226000Y-77470000D01*
X154432000Y-78232000D02*
X155194000Y-77470000D01*
X154432000Y-80010000D02*
X154432000Y-78232000D01*
X155734000Y-81312000D02*
X154432000Y-80010000D01*
X155956000Y-81312000D02*
X155734000Y-81312000D01*
X157226000Y-77470000D02*
X157760000Y-76936000D01*
%TO.N,/GND*%
X167132000Y-77470000D02*
X167920000Y-76682000D01*
X159766000Y-77470000D02*
X167132000Y-77470000D01*
X157924000Y-79312000D02*
X159766000Y-77470000D01*
X155956000Y-79312000D02*
X157924000Y-79312000D01*
X167920000Y-76682000D02*
X167920000Y-75220000D01*
%TO.N,Net-(J8-Pin_1)*%
X155702000Y-83312000D02*
X155956000Y-83312000D01*
X150114000Y-77724000D02*
X155702000Y-83312000D01*
X145796000Y-77724000D02*
X150114000Y-77724000D01*
X145060000Y-75220000D02*
X145060000Y-76988000D01*
X145060000Y-76988000D02*
X145796000Y-77724000D01*
%TO.N,/SCL*%
X147606000Y-81312000D02*
X148844000Y-81312000D01*
X141478000Y-77216000D02*
X143510000Y-77216000D01*
X139980000Y-75718000D02*
X141478000Y-77216000D01*
X143510000Y-77216000D02*
X147606000Y-81312000D01*
X139980000Y-75220000D02*
X139980000Y-75718000D01*
%TO.N,/SDA*%
X148590000Y-83312000D02*
X148844000Y-83312000D01*
X143256000Y-77978000D02*
X148590000Y-83312000D01*
X138176000Y-77978000D02*
X143256000Y-77978000D01*
X137440000Y-75220000D02*
X137440000Y-77242000D01*
X137440000Y-77242000D02*
X138176000Y-77978000D01*
%TO.N,Net-(J7-Pin_2)*%
X140494000Y-81312000D02*
X141732000Y-81312000D01*
X134900000Y-75718000D02*
X140494000Y-81312000D01*
X134900000Y-75220000D02*
X134900000Y-75718000D01*
%TO.N,Net-(J7-Pin_1)*%
X141478000Y-83312000D02*
X141732000Y-83312000D01*
X135890000Y-77724000D02*
X141478000Y-83312000D01*
X134366000Y-77724000D02*
X135890000Y-77724000D01*
X132360000Y-75220000D02*
X132360000Y-75718000D01*
X132360000Y-75718000D02*
X134366000Y-77724000D01*
%TO.N,Net-(J6-Pin_3)*%
X133414000Y-79312000D02*
X134620000Y-79312000D01*
X129820000Y-75718000D02*
X133414000Y-79312000D01*
X129820000Y-75220000D02*
X129820000Y-75718000D01*
%TO.N,Net-(J6-Pin_2)*%
X133128000Y-81312000D02*
X134620000Y-81312000D01*
X127762000Y-77470000D02*
X129286000Y-77470000D01*
X127280000Y-76988000D02*
X127762000Y-77470000D01*
X127280000Y-75220000D02*
X127280000Y-76988000D01*
X129286000Y-77470000D02*
X133128000Y-81312000D01*
%TO.N,Net-(J6-Pin_1)*%
X133604000Y-83312000D02*
X134620000Y-83312000D01*
X132588000Y-82296000D02*
X133604000Y-83312000D01*
X132588000Y-81534000D02*
X132588000Y-82296000D01*
X129032000Y-77978000D02*
X132588000Y-81534000D01*
X125476000Y-77978000D02*
X129032000Y-77978000D01*
X124740000Y-77242000D02*
X125476000Y-77978000D01*
X124740000Y-75220000D02*
X124740000Y-77242000D01*
%TO.N,Net-(J4-Pin_3)*%
X129794000Y-80010000D02*
X129032000Y-79248000D01*
X126556000Y-87566000D02*
X129794000Y-84328000D01*
X129032000Y-79248000D02*
X127508000Y-79248000D01*
X126556000Y-89154000D02*
X126556000Y-87566000D01*
X129794000Y-84328000D02*
X129794000Y-80010000D01*
%TO.N,Net-(J5-Pin_2)*%
X124740000Y-82016000D02*
X125508000Y-81248000D01*
X125508000Y-81248000D02*
X127508000Y-81248000D01*
X124740000Y-93000000D02*
X124740000Y-82016000D01*
%TO.N,Net-(J4-Pin_3)*%
X126556000Y-89736000D02*
X129820000Y-93000000D01*
X126556000Y-89154000D02*
X126556000Y-89736000D01*
%TO.N,Net-(J4-Pin_2)*%
X132360000Y-91466000D02*
X132360000Y-93000000D01*
X131572000Y-90678000D02*
X132360000Y-91466000D01*
X128556000Y-90202000D02*
X129032000Y-90678000D01*
X128556000Y-89154000D02*
X128556000Y-90202000D01*
X129032000Y-90678000D02*
X131572000Y-90678000D01*
%TO.N,Net-(J4-Pin_1)*%
X134900000Y-90958000D02*
X134900000Y-93000000D01*
X133096000Y-89154000D02*
X134900000Y-90958000D01*
X130556000Y-89154000D02*
X133096000Y-89154000D01*
%TO.N,Net-(J3-Pin_2)*%
X137440000Y-91160000D02*
X137440000Y-93000000D01*
X138208000Y-89154000D02*
X138208000Y-90392000D01*
X138208000Y-90392000D02*
X137440000Y-91160000D01*
%TO.N,Net-(J3-Pin_1)*%
X139980000Y-90906000D02*
X139980000Y-93000000D01*
X140208000Y-90678000D02*
X139980000Y-90906000D01*
X140208000Y-89154000D02*
X140208000Y-90678000D01*
%TO.N,Net-(J2-Pin_6)*%
X142520000Y-90652000D02*
X142520000Y-93000000D01*
X144018000Y-89154000D02*
X142520000Y-90652000D01*
X145702000Y-89154000D02*
X144018000Y-89154000D01*
%TO.N,Net-(J2-Pin_5)*%
X145542000Y-90678000D02*
X145060000Y-91160000D01*
X147702000Y-89534000D02*
X146558000Y-90678000D01*
X145060000Y-91160000D02*
X145060000Y-93000000D01*
X147702000Y-89154000D02*
X147702000Y-89534000D01*
X146558000Y-90678000D02*
X145542000Y-90678000D01*
%TO.N,Net-(J2-Pin_4)*%
X147600000Y-91668000D02*
X147600000Y-93000000D01*
X149702000Y-89566000D02*
X147600000Y-91668000D01*
X149702000Y-89154000D02*
X149702000Y-89566000D01*
%TO.N,Net-(J2-Pin_3)*%
X150140000Y-91160000D02*
X150140000Y-93000000D01*
X151702000Y-89154000D02*
X151702000Y-89598000D01*
X151702000Y-89598000D02*
X150140000Y-91160000D01*
%TO.N,Net-(J2-Pin_2)*%
X152680000Y-91414000D02*
X152680000Y-93000000D01*
X153702000Y-90392000D02*
X152680000Y-91414000D01*
X153702000Y-89154000D02*
X153702000Y-90392000D01*
%TO.N,Net-(J2-Pin_1)*%
X157760000Y-90196000D02*
X157760000Y-93000000D01*
X156718000Y-89154000D02*
X157760000Y-90196000D01*
X155702000Y-89154000D02*
X156718000Y-89154000D01*
%TO.N,Net-(J1-Pin_5)*%
X161036000Y-90678000D02*
X160300000Y-91414000D01*
X160300000Y-91414000D02*
X160300000Y-93000000D01*
X161798000Y-90678000D02*
X161036000Y-90678000D01*
X163164000Y-89312000D02*
X161798000Y-90678000D01*
X163164000Y-89154000D02*
X163164000Y-89312000D01*
%TO.N,Net-(J1-Pin_4)*%
X162840000Y-91668000D02*
X162840000Y-93000000D01*
X165164000Y-89344000D02*
X162840000Y-91668000D01*
X165164000Y-89154000D02*
X165164000Y-89344000D01*
%TO.N,Net-(J1-Pin_3)*%
X165380000Y-91414000D02*
X165380000Y-93000000D01*
X167164000Y-89630000D02*
X165380000Y-91414000D01*
X167164000Y-89154000D02*
X167164000Y-89630000D01*
%TO.N,Net-(J1-Pin_2)*%
X170460000Y-91466000D02*
X170460000Y-93000000D01*
X169164000Y-90170000D02*
X170460000Y-91466000D01*
X169164000Y-89154000D02*
X169164000Y-90170000D01*
%TO.N,Net-(J1-Pin_1)*%
X173000000Y-89942000D02*
X173000000Y-93000000D01*
X172212000Y-89154000D02*
X173000000Y-89942000D01*
X171164000Y-89154000D02*
X172212000Y-89154000D01*
%TD*%
M02*
