M48
; DRILL file {KiCad 8.0.1} date 2024-04-24T21:25:24+1200
; FORMAT={-:-/ absolute / metric / decimal}
; #@! TF.CreationDate,2024-04-24T21:25:24+12:00
; #@! TF.GenerationSoftware,Kicad,Pcbnew,8.0.1
; #@! TF.FileFunction,Plated,1,2,PTH
FMAT,2
METRIC
; #@! TA.AperFunction,Plated,PTH,ComponentDrill
T1C0.750
; #@! TA.AperFunction,Plated,PTH,ComponentDrill
T2C0.762
; #@! TA.AperFunction,Plated,PTH,ComponentDrill
T3C1.100
; #@! TA.AperFunction,Plated,PTH,ComponentDrill
T4C1.300
; #@! TA.AperFunction,Plated,PTH,ComponentDrill
T5C1.600
%
G90
G05
T1
X98.458Y-113.284
X100.458Y-113.284
X102.458Y-113.284
X104.458Y-113.284
X106.458Y-113.284
X108.458Y-113.284
X111.14Y-91.81
X111.985Y-89.997
X112.83Y-88.185
X113.675Y-86.372
X114.521Y-84.559
X115.366Y-82.747
X121.28Y-96.923
X123.212Y-97.441
X125.144Y-97.959
X127.076Y-98.476
X129.008Y-98.994
X130.94Y-99.512
X131.899Y-64.306
X133.884Y-64.55
X135.192Y-113.284
X135.869Y-64.794
X137.192Y-113.284
X137.854Y-65.038
X139.192Y-113.284
X139.839Y-65.281
X141.142Y-83.879
X141.192Y-113.284
X141.316Y-85.871
X141.49Y-87.863
X141.664Y-89.856
X141.824Y-65.525
X141.839Y-91.848
X142.013Y-93.841
X143.192Y-113.284
X145.192Y-113.284
T2
X99.352Y-99.375
X100.103Y-101.273
X100.15Y-97.508
X102.879Y-94.843
X104.635Y-104.8
X104.777Y-94.092
X106.533Y-104.049
X109.309Y-97.619
X110.06Y-99.517
X138.458Y-102.013
X138.931Y-100.027
X140.147Y-107.501
X140.656Y-98.955
X142.133Y-107.974
X144.419Y-98.338
X146.405Y-98.811
X147.621Y-106.285
X148.094Y-104.299
T3
X126.599Y-68.246
X129.08Y-68.551
X131.561Y-68.856
X136.376Y-80.761
X136.681Y-78.28
X136.986Y-75.799
T4
X123.541Y-86.994
X124.089Y-82.527
X129.993Y-87.786
X130.541Y-83.319
T5
X121.129Y-81.408
X122.347Y-71.482
X133.685Y-82.95
X134.903Y-73.024
M30
