%TF.GenerationSoftware,KiCad,Pcbnew,8.0.1*%
%TF.CreationDate,2024-04-24T21:25:30+12:00*%
%TF.ProjectId,collective-hat-pcb,636f6c6c-6563-4746-9976-652d6861742d,rev?*%
%TF.SameCoordinates,Original*%
%TF.FileFunction,Soldermask,Top*%
%TF.FilePolarity,Negative*%
%FSLAX46Y46*%
G04 Gerber Fmt 4.6, Leading zero omitted, Abs format (unit mm)*
G04 Created by KiCad (PCBNEW 8.0.1) date 2024-04-24 21:25:30*
%MOMM*%
%LPD*%
G01*
G04 APERTURE LIST*
G04 Aperture macros list*
%AMRoundRect*
0 Rectangle with rounded corners*
0 $1 Rounding radius*
0 $2 $3 $4 $5 $6 $7 $8 $9 X,Y pos of 4 corners*
0 Add a 4 corners polygon primitive as box body*
4,1,4,$2,$3,$4,$5,$6,$7,$8,$9,$2,$3,0*
0 Add four circle primitives for the rounded corners*
1,1,$1+$1,$2,$3*
1,1,$1+$1,$4,$5*
1,1,$1+$1,$6,$7*
1,1,$1+$1,$8,$9*
0 Add four rect primitives between the rounded corners*
20,1,$1+$1,$2,$3,$4,$5,0*
20,1,$1+$1,$4,$5,$6,$7,0*
20,1,$1+$1,$6,$7,$8,$9,0*
20,1,$1+$1,$8,$9,$2,$3,0*%
%AMHorizOval*
0 Thick line with rounded ends*
0 $1 width*
0 $2 $3 position (X,Y) of the first rounded end (center of the circle)*
0 $4 $5 position (X,Y) of the second rounded end (center of the circle)*
0 Add line between two ends*
20,1,$1,$2,$3,$4,$5,0*
0 Add two circle primitives to create the rounded ends*
1,1,$1,$2,$3*
1,1,$1,$4,$5*%
G04 Aperture macros list end*
%ADD10C,2.700000*%
%ADD11RoundRect,0.250000X-0.350000X-0.625000X0.350000X-0.625000X0.350000X0.625000X-0.350000X0.625000X0*%
%ADD12O,1.200000X1.750000*%
%ADD13RoundRect,0.250000X-0.499836X-0.513117X0.176312X-0.694290X0.499836X0.513117X-0.176312X0.694290X0*%
%ADD14HorizOval,1.200000X-0.071175X-0.265630X0.071175X0.265630X0*%
%ADD15RoundRect,0.250000X0.653126X-0.294196X0.592117X0.403140X-0.653126X0.294196X-0.592117X-0.403140X0*%
%ADD16HorizOval,1.200000X0.273954X0.023968X-0.273954X-0.023968X0*%
%ADD17RoundRect,0.250000X-0.418526X0.581344X-0.714359X-0.053071X0.418526X-0.581344X0.714359X0.053071X0*%
%ADD18HorizOval,1.200000X-0.249235X0.116220X0.249235X-0.116220X0*%
%ADD19RoundRect,0.250000X0.423559X0.577687X-0.271223X0.662996X-0.423559X-0.577687X0.271223X-0.662996X0*%
%ADD20HorizOval,1.200000X0.033514X0.272950X-0.033514X-0.272950X0*%
%ADD21C,2.154000*%
%ADD22C,2.604000*%
%ADD23RoundRect,0.102000X-0.919393X-0.718308X0.718308X-0.919393X0.919393X0.718308X-0.718308X0.919393X0*%
%ADD24C,1.854000*%
%ADD25C,1.200000*%
%ADD26C,1.524000*%
G04 APERTURE END LIST*
D10*
%TO.C,REF\u002A\u002A*%
X96520000Y-106426000D03*
%TD*%
%TO.C,REF\u002A\u002A*%
X151638000Y-109474000D03*
%TD*%
%TO.C,REF\u002A\u002A*%
X134112000Y-93218000D03*
%TD*%
%TO.C,REF\u002A\u002A*%
X116078000Y-64516000D03*
%TD*%
%TO.C,REF\u002A\u002A*%
X143256000Y-74676000D03*
%TD*%
D11*
%TO.C,J6*%
X98458000Y-113284000D03*
D12*
X100458000Y-113284000D03*
X102458000Y-113284000D03*
X104458000Y-113284000D03*
X106458000Y-113284000D03*
X108458000Y-113284000D03*
%TD*%
D11*
%TO.C,J5*%
X135192000Y-113284000D03*
D12*
X137192000Y-113284000D03*
X139192000Y-113284000D03*
X141192000Y-113284000D03*
X143192000Y-113284000D03*
X145192000Y-113284000D03*
%TD*%
D13*
%TO.C,J4*%
X121280478Y-96923387D03*
D14*
X123212329Y-97441025D03*
X125144181Y-97958664D03*
X127076033Y-98476302D03*
X129007884Y-98993938D03*
X130939736Y-99511578D03*
%TD*%
D15*
%TO.C,J3*%
X142013102Y-93840505D03*
D16*
X141838790Y-91848116D03*
X141664480Y-89855726D03*
X141490168Y-87863337D03*
X141315855Y-85870948D03*
X141141545Y-83878557D03*
%TD*%
D17*
%TO.C,J2*%
X115365762Y-82746874D03*
D18*
X114520525Y-84559489D03*
X113675289Y-86372105D03*
X112830052Y-88184721D03*
X111984816Y-89997337D03*
X111139579Y-91809952D03*
%TD*%
D19*
%TO.C,J1*%
X141824151Y-65525085D03*
D20*
X139839059Y-65281346D03*
X137853966Y-65037608D03*
X135868874Y-64793869D03*
X133883782Y-64550130D03*
X131898689Y-64306392D03*
%TD*%
D21*
%TO.C,R1*%
X124089476Y-82527065D03*
X130541027Y-83319216D03*
X123541065Y-86993522D03*
X129992614Y-87785674D03*
D22*
X134903201Y-73024093D03*
X122347492Y-71482446D03*
X121128799Y-81407907D03*
X133684508Y-82949554D03*
D23*
X136376254Y-80761285D03*
D24*
X136680928Y-78279920D03*
X136985602Y-75798554D03*
X131561285Y-68855746D03*
X129079920Y-68551072D03*
X126598554Y-68246398D03*
%TD*%
D25*
%TO.C,SW2*%
X105169864Y-96317929D03*
D26*
X106533002Y-104048669D03*
X109308669Y-97618998D03*
X102878998Y-94843331D03*
X100103331Y-101273002D03*
X99352263Y-99374581D03*
X104634581Y-104799737D03*
X110059737Y-99517419D03*
X104777419Y-94092263D03*
X100150198Y-97507659D03*
%TD*%
D25*
%TO.C,SW1*%
X145450163Y-100859695D03*
D26*
X142132610Y-107974211D03*
X148094211Y-104299390D03*
X144419390Y-98337789D03*
X138457789Y-102012610D03*
X138931439Y-100026720D03*
X140146720Y-107500561D03*
X147620561Y-106285280D03*
X146405280Y-98811439D03*
X140655892Y-98955103D03*
%TD*%
M02*
