%TF.GenerationSoftware,KiCad,Pcbnew,8.0.1*%
%TF.CreationDate,2024-04-24T21:25:30+12:00*%
%TF.ProjectId,collective-hat-pcb,636f6c6c-6563-4746-9976-652d6861742d,rev?*%
%TF.SameCoordinates,Original*%
%TF.FileFunction,Legend,Bot*%
%TF.FilePolarity,Positive*%
%FSLAX46Y46*%
G04 Gerber Fmt 4.6, Leading zero omitted, Abs format (unit mm)*
G04 Created by KiCad (PCBNEW 8.0.1) date 2024-04-24 21:25:30*
%MOMM*%
%LPD*%
G01*
G04 APERTURE LIST*
%ADD10C,0.150000*%
%ADD11C,0.120000*%
G04 APERTURE END LIST*
D10*
X103711333Y-108420819D02*
X103711333Y-109135104D01*
X103711333Y-109135104D02*
X103758952Y-109277961D01*
X103758952Y-109277961D02*
X103854190Y-109373200D01*
X103854190Y-109373200D02*
X103997047Y-109420819D01*
X103997047Y-109420819D02*
X104092285Y-109420819D01*
X102806571Y-108420819D02*
X102997047Y-108420819D01*
X102997047Y-108420819D02*
X103092285Y-108468438D01*
X103092285Y-108468438D02*
X103139904Y-108516057D01*
X103139904Y-108516057D02*
X103235142Y-108658914D01*
X103235142Y-108658914D02*
X103282761Y-108849390D01*
X103282761Y-108849390D02*
X103282761Y-109230342D01*
X103282761Y-109230342D02*
X103235142Y-109325580D01*
X103235142Y-109325580D02*
X103187523Y-109373200D01*
X103187523Y-109373200D02*
X103092285Y-109420819D01*
X103092285Y-109420819D02*
X102901809Y-109420819D01*
X102901809Y-109420819D02*
X102806571Y-109373200D01*
X102806571Y-109373200D02*
X102758952Y-109325580D01*
X102758952Y-109325580D02*
X102711333Y-109230342D01*
X102711333Y-109230342D02*
X102711333Y-108992247D01*
X102711333Y-108992247D02*
X102758952Y-108897009D01*
X102758952Y-108897009D02*
X102806571Y-108849390D01*
X102806571Y-108849390D02*
X102901809Y-108801771D01*
X102901809Y-108801771D02*
X103092285Y-108801771D01*
X103092285Y-108801771D02*
X103187523Y-108849390D01*
X103187523Y-108849390D02*
X103235142Y-108897009D01*
X103235142Y-108897009D02*
X103282761Y-108992247D01*
X138255333Y-108166819D02*
X138255333Y-108881104D01*
X138255333Y-108881104D02*
X138302952Y-109023961D01*
X138302952Y-109023961D02*
X138398190Y-109119200D01*
X138398190Y-109119200D02*
X138541047Y-109166819D01*
X138541047Y-109166819D02*
X138636285Y-109166819D01*
X137302952Y-108166819D02*
X137779142Y-108166819D01*
X137779142Y-108166819D02*
X137826761Y-108643009D01*
X137826761Y-108643009D02*
X137779142Y-108595390D01*
X137779142Y-108595390D02*
X137683904Y-108547771D01*
X137683904Y-108547771D02*
X137445809Y-108547771D01*
X137445809Y-108547771D02*
X137350571Y-108595390D01*
X137350571Y-108595390D02*
X137302952Y-108643009D01*
X137302952Y-108643009D02*
X137255333Y-108738247D01*
X137255333Y-108738247D02*
X137255333Y-108976342D01*
X137255333Y-108976342D02*
X137302952Y-109071580D01*
X137302952Y-109071580D02*
X137350571Y-109119200D01*
X137350571Y-109119200D02*
X137445809Y-109166819D01*
X137445809Y-109166819D02*
X137683904Y-109166819D01*
X137683904Y-109166819D02*
X137779142Y-109119200D01*
X137779142Y-109119200D02*
X137826761Y-109071580D01*
D11*
%TO.C,J6*%
X96098000Y-114144000D02*
X96098000Y-115394000D01*
X96398000Y-110374000D02*
X96398000Y-115094000D01*
X97008000Y-113784000D02*
X96398000Y-113784000D01*
X97008000Y-112484000D02*
X96398000Y-112484000D01*
X110518000Y-110374000D02*
X96398000Y-110374000D01*
X97008000Y-110984000D02*
X97008000Y-114484000D01*
X109908000Y-110984000D02*
X97008000Y-110984000D01*
X96098000Y-115394000D02*
X97348000Y-115394000D01*
X97858000Y-115094000D02*
X97858000Y-115294000D01*
X97858000Y-115294000D02*
X98158000Y-115294000D01*
X97858000Y-115194000D02*
X98158000Y-115194000D01*
X98158000Y-115294000D02*
X98158000Y-115094000D01*
X98958000Y-114484000D02*
X98958000Y-115094000D01*
X97008000Y-114484000D02*
X98958000Y-114484000D01*
X99558000Y-111484000D02*
X99358000Y-111484000D01*
X99358000Y-111484000D02*
X99358000Y-110984000D01*
X99458000Y-111484000D02*
X99458000Y-110984000D01*
X99558000Y-110984000D02*
X99558000Y-111484000D01*
X101558000Y-111484000D02*
X101358000Y-111484000D01*
X101358000Y-111484000D02*
X101358000Y-110984000D01*
X101458000Y-111484000D02*
X101458000Y-110984000D01*
X101558000Y-110984000D02*
X101558000Y-111484000D01*
X103558000Y-111484000D02*
X103358000Y-111484000D01*
X103358000Y-111484000D02*
X103358000Y-110984000D01*
X103458000Y-111484000D02*
X103458000Y-110984000D01*
X103558000Y-110984000D02*
X103558000Y-111484000D01*
X105558000Y-111484000D02*
X105358000Y-111484000D01*
X105358000Y-111484000D02*
X105358000Y-110984000D01*
X105458000Y-111484000D02*
X105458000Y-110984000D01*
X105558000Y-110984000D02*
X105558000Y-111484000D01*
X107558000Y-111484000D02*
X107358000Y-111484000D01*
X107358000Y-111484000D02*
X107358000Y-110984000D01*
X107458000Y-111484000D02*
X107458000Y-110984000D01*
X107558000Y-110984000D02*
X107558000Y-111484000D01*
X107958000Y-115094000D02*
X107958000Y-114484000D01*
X107958000Y-114484000D02*
X109908000Y-114484000D01*
X109908000Y-114484000D02*
X109908000Y-110984000D01*
X96398000Y-115094000D02*
X110518000Y-115094000D01*
X109908000Y-113784000D02*
X110518000Y-113784000D01*
X109908000Y-112484000D02*
X110518000Y-112484000D01*
X110518000Y-115094000D02*
X110518000Y-110374000D01*
%TO.C,J5*%
X132832000Y-114144000D02*
X132832000Y-115394000D01*
X133132000Y-110374000D02*
X133132000Y-115094000D01*
X133742000Y-113784000D02*
X133132000Y-113784000D01*
X133742000Y-112484000D02*
X133132000Y-112484000D01*
X147252000Y-110374000D02*
X133132000Y-110374000D01*
X133742000Y-110984000D02*
X133742000Y-114484000D01*
X146642000Y-110984000D02*
X133742000Y-110984000D01*
X132832000Y-115394000D02*
X134082000Y-115394000D01*
X134592000Y-115094000D02*
X134592000Y-115294000D01*
X134592000Y-115294000D02*
X134892000Y-115294000D01*
X134592000Y-115194000D02*
X134892000Y-115194000D01*
X134892000Y-115294000D02*
X134892000Y-115094000D01*
X135692000Y-114484000D02*
X135692000Y-115094000D01*
X133742000Y-114484000D02*
X135692000Y-114484000D01*
X136292000Y-111484000D02*
X136092000Y-111484000D01*
X136092000Y-111484000D02*
X136092000Y-110984000D01*
X136192000Y-111484000D02*
X136192000Y-110984000D01*
X136292000Y-110984000D02*
X136292000Y-111484000D01*
X138292000Y-111484000D02*
X138092000Y-111484000D01*
X138092000Y-111484000D02*
X138092000Y-110984000D01*
X138192000Y-111484000D02*
X138192000Y-110984000D01*
X138292000Y-110984000D02*
X138292000Y-111484000D01*
X140292000Y-111484000D02*
X140092000Y-111484000D01*
X140092000Y-111484000D02*
X140092000Y-110984000D01*
X140192000Y-111484000D02*
X140192000Y-110984000D01*
X140292000Y-110984000D02*
X140292000Y-111484000D01*
X142292000Y-111484000D02*
X142092000Y-111484000D01*
X142092000Y-111484000D02*
X142092000Y-110984000D01*
X142192000Y-111484000D02*
X142192000Y-110984000D01*
X142292000Y-110984000D02*
X142292000Y-111484000D01*
X144292000Y-111484000D02*
X144092000Y-111484000D01*
X144092000Y-111484000D02*
X144092000Y-110984000D01*
X144192000Y-111484000D02*
X144192000Y-110984000D01*
X144292000Y-110984000D02*
X144292000Y-111484000D01*
X144692000Y-115094000D02*
X144692000Y-114484000D01*
X144692000Y-114484000D02*
X146642000Y-114484000D01*
X146642000Y-114484000D02*
X146642000Y-110984000D01*
X133132000Y-115094000D02*
X147252000Y-115094000D01*
X146642000Y-113784000D02*
X147252000Y-113784000D01*
X146642000Y-112484000D02*
X147252000Y-112484000D01*
X147252000Y-115094000D02*
X147252000Y-110374000D01*
%TD*%
M02*
