%TF.GenerationSoftware,KiCad,Pcbnew,8.0.1*%
%TF.CreationDate,2024-04-24T21:25:30+12:00*%
%TF.ProjectId,collective-hat-pcb,636f6c6c-6563-4746-9976-652d6861742d,rev?*%
%TF.SameCoordinates,Original*%
%TF.FileFunction,Legend,Top*%
%TF.FilePolarity,Positive*%
%FSLAX46Y46*%
G04 Gerber Fmt 4.6, Leading zero omitted, Abs format (unit mm)*
G04 Created by KiCad (PCBNEW 8.0.1) date 2024-04-24 21:25:30*
%MOMM*%
%LPD*%
G01*
G04 APERTURE LIST*
%ADD10C,0.150000*%
%ADD11C,0.100000*%
%ADD12C,0.120000*%
%ADD13C,0.127000*%
%ADD14C,0.200000*%
G04 APERTURE END LIST*
D10*
X126589223Y-95141494D02*
X126404353Y-95831441D01*
X126404353Y-95831441D02*
X126321382Y-95957106D01*
X126321382Y-95957106D02*
X126204740Y-96024449D01*
X126204740Y-96024449D02*
X126054425Y-96033472D01*
X126054425Y-96033472D02*
X125962433Y-96008822D01*
X127376883Y-95697639D02*
X127204337Y-96341590D01*
X127245499Y-95268044D02*
X126830646Y-95896367D01*
X126830646Y-95896367D02*
X127428600Y-96056588D01*
X139551081Y-88702198D02*
X138839513Y-88764452D01*
X138839513Y-88764452D02*
X138693050Y-88729465D01*
X138693050Y-88729465D02*
X138589873Y-88642890D01*
X138589873Y-88642890D02*
X138529985Y-88504726D01*
X138529985Y-88504726D02*
X138521684Y-88409851D01*
X139584283Y-89081701D02*
X139638237Y-89698393D01*
X139638237Y-89698393D02*
X139229682Y-89399530D01*
X139229682Y-89399530D02*
X139242133Y-89541844D01*
X139242133Y-89541844D02*
X139202996Y-89640870D01*
X139202996Y-89640870D02*
X139159708Y-89692458D01*
X139159708Y-89692458D02*
X139068983Y-89748196D01*
X139068983Y-89748196D02*
X138831793Y-89768947D01*
X138831793Y-89768947D02*
X138732767Y-89729810D01*
X138732767Y-89729810D02*
X138681179Y-89686523D01*
X138681179Y-89686523D02*
X138625441Y-89595797D01*
X138625441Y-89595797D02*
X138600539Y-89311170D01*
X138600539Y-89311170D02*
X138639677Y-89212144D01*
X138639677Y-89212144D02*
X138682964Y-89160556D01*
X114928780Y-88427789D02*
X115576143Y-88729659D01*
X115576143Y-88729659D02*
X115685491Y-88833191D01*
X115685491Y-88833191D02*
X115731556Y-88959755D01*
X115731556Y-88959755D02*
X115714340Y-89109352D01*
X115714340Y-89109352D02*
X115674090Y-89195667D01*
X115196217Y-88079620D02*
X115173184Y-88016338D01*
X115173184Y-88016338D02*
X115170276Y-87909898D01*
X115170276Y-87909898D02*
X115270900Y-87694111D01*
X115270900Y-87694111D02*
X115354306Y-87627921D01*
X115354306Y-87627921D02*
X115417589Y-87604888D01*
X115417589Y-87604888D02*
X115524028Y-87601980D01*
X115524028Y-87601980D02*
X115610343Y-87642229D01*
X115610343Y-87642229D02*
X115719691Y-87745760D01*
X115719691Y-87745760D02*
X115996085Y-88505147D01*
X115996085Y-88505147D02*
X116257706Y-87944099D01*
X136286244Y-66864990D02*
X136199195Y-67573952D01*
X136199195Y-67573952D02*
X136134521Y-67709941D01*
X136134521Y-67709941D02*
X136028386Y-67792862D01*
X136028386Y-67792862D02*
X135880791Y-67822716D01*
X135880791Y-67822716D02*
X135786262Y-67811110D01*
X137156922Y-67979406D02*
X136589752Y-67909766D01*
X136873337Y-67944586D02*
X136995206Y-66952040D01*
X136995206Y-66952040D02*
X136883268Y-67082225D01*
X136883268Y-67082225D02*
X136777133Y-67165147D01*
X136777133Y-67165147D02*
X136676802Y-67200804D01*
X127059184Y-65794075D02*
X126786368Y-65280811D01*
X126492015Y-65724435D02*
X126613884Y-64731889D01*
X126613884Y-64731889D02*
X126991997Y-64778316D01*
X126991997Y-64778316D02*
X127080722Y-64837186D01*
X127080722Y-64837186D02*
X127122183Y-64890254D01*
X127122183Y-64890254D02*
X127157840Y-64990585D01*
X127157840Y-64990585D02*
X127140430Y-65132377D01*
X127140430Y-65132377D02*
X127081560Y-65221102D01*
X127081560Y-65221102D02*
X127028492Y-65262563D01*
X127028492Y-65262563D02*
X126928161Y-65298221D01*
X126928161Y-65298221D02*
X126550048Y-65251794D01*
X128004466Y-65910141D02*
X127437297Y-65840501D01*
X127720882Y-65875321D02*
X127842751Y-64882775D01*
X127842751Y-64882775D02*
X127730813Y-65012961D01*
X127730813Y-65012961D02*
X127624678Y-65095882D01*
X127624678Y-65095882D02*
X127524346Y-65131540D01*
D11*
X112042084Y-99441105D02*
X112191040Y-99463193D01*
X112191040Y-99463193D02*
X112425518Y-99421848D01*
X112425518Y-99421848D02*
X112511040Y-99358415D01*
X112511040Y-99358415D02*
X112549667Y-99303250D01*
X112549667Y-99303250D02*
X112580024Y-99201190D01*
X112580024Y-99201190D02*
X112563487Y-99107399D01*
X112563487Y-99107399D02*
X112500053Y-99021877D01*
X112500053Y-99021877D02*
X112444888Y-98983250D01*
X112444888Y-98983250D02*
X112342828Y-98952892D01*
X112342828Y-98952892D02*
X112146977Y-98939073D01*
X112146977Y-98939073D02*
X112044917Y-98908715D01*
X112044917Y-98908715D02*
X111989752Y-98870088D01*
X111989752Y-98870088D02*
X111926319Y-98784566D01*
X111926319Y-98784566D02*
X111909781Y-98690775D01*
X111909781Y-98690775D02*
X111940138Y-98588715D01*
X111940138Y-98588715D02*
X111978765Y-98533550D01*
X111978765Y-98533550D02*
X112064287Y-98470117D01*
X112064287Y-98470117D02*
X112298765Y-98428772D01*
X112298765Y-98428772D02*
X112447721Y-98450860D01*
X112767721Y-98346082D02*
X113175848Y-99289545D01*
X113175848Y-99289545D02*
X113239396Y-98553035D01*
X113239396Y-98553035D02*
X113551012Y-99223393D01*
X113551012Y-99223393D02*
X113611842Y-98197241D01*
X113956649Y-98233149D02*
X113995276Y-98177985D01*
X113995276Y-98177985D02*
X114080798Y-98114551D01*
X114080798Y-98114551D02*
X114315276Y-98073206D01*
X114315276Y-98073206D02*
X114417336Y-98103564D01*
X114417336Y-98103564D02*
X114472501Y-98142191D01*
X114472501Y-98142191D02*
X114535935Y-98227713D01*
X114535935Y-98227713D02*
X114552472Y-98321504D01*
X114552472Y-98321504D02*
X114530384Y-98470460D01*
X114530384Y-98470460D02*
X114066864Y-99132435D01*
X114066864Y-99132435D02*
X114676507Y-99024938D01*
X135270401Y-98613914D02*
X135379748Y-98717445D01*
X135379748Y-98717445D02*
X135595536Y-98818069D01*
X135595536Y-98818069D02*
X135701976Y-98815160D01*
X135701976Y-98815160D02*
X135765258Y-98792128D01*
X135765258Y-98792128D02*
X135848665Y-98725937D01*
X135848665Y-98725937D02*
X135888914Y-98639622D01*
X135888914Y-98639622D02*
X135886006Y-98533183D01*
X135886006Y-98533183D02*
X135862973Y-98469900D01*
X135862973Y-98469900D02*
X135796783Y-98386493D01*
X135796783Y-98386493D02*
X135644277Y-98262837D01*
X135644277Y-98262837D02*
X135578087Y-98179430D01*
X135578087Y-98179430D02*
X135555054Y-98116148D01*
X135555054Y-98116148D02*
X135552146Y-98009708D01*
X135552146Y-98009708D02*
X135592395Y-97923393D01*
X135592395Y-97923393D02*
X135675802Y-97857203D01*
X135675802Y-97857203D02*
X135739085Y-97834170D01*
X135739085Y-97834170D02*
X135845524Y-97831262D01*
X135845524Y-97831262D02*
X136061312Y-97931885D01*
X136061312Y-97931885D02*
X136170660Y-98035417D01*
X136492887Y-98133132D02*
X136286056Y-99140063D01*
X136286056Y-99140063D02*
X136760557Y-98573199D01*
X136760557Y-98573199D02*
X136631316Y-99301061D01*
X136631316Y-99301061D02*
X137269722Y-98495377D01*
X137667097Y-99784053D02*
X137149206Y-99542557D01*
X137408152Y-99663305D02*
X137830770Y-98756997D01*
X137830770Y-98756997D02*
X137684081Y-98846220D01*
X137684081Y-98846220D02*
X137557516Y-98892286D01*
X137557516Y-98892286D02*
X137451077Y-98895194D01*
D12*
%TO.C,J4*%
X119668548Y-94979968D02*
X117644582Y-102533507D01*
X119254437Y-96525449D02*
X120143087Y-96763564D01*
X117644582Y-102533507D02*
X131283455Y-106188033D01*
X119377726Y-99001737D02*
X118963615Y-100547218D01*
X118963615Y-100547218D02*
X119929541Y-100806037D01*
X120557198Y-95218082D02*
X119668548Y-94979968D01*
X120143087Y-96763564D02*
X120557198Y-95218082D01*
X120413547Y-96836033D02*
X120143087Y-96763564D01*
X120413547Y-96836033D02*
X120728012Y-95662433D01*
X119446578Y-100676627D02*
X118861649Y-102859620D01*
X120343653Y-99260556D02*
X119377726Y-99001737D01*
X119929541Y-100806037D02*
X120343653Y-99260556D01*
X119929541Y-100806037D02*
X119344611Y-102989028D01*
X121245803Y-98984648D02*
X129939136Y-101314019D01*
X120117352Y-103196084D02*
X121245803Y-98984648D01*
X129939136Y-101314019D02*
X128810684Y-105525456D01*
X130582466Y-102004038D02*
X131548392Y-102262857D01*
X130168356Y-103549520D02*
X130582466Y-102004038D01*
X132418768Y-98396379D02*
X132004658Y-99941861D01*
X132004658Y-99941861D02*
X131734199Y-99869391D01*
X131548392Y-102262857D02*
X131134282Y-103808338D01*
X131134282Y-103808338D02*
X130168356Y-103549520D01*
X133307420Y-98634492D02*
X132418768Y-98396379D01*
X132893309Y-100179974D02*
X132004658Y-99941861D01*
X131283455Y-106188033D02*
X133307420Y-98634492D01*
%TO.C,J3*%
X140738197Y-96019913D02*
X148528440Y-95338356D01*
X142332109Y-95880463D02*
X142251928Y-94963966D01*
X148528440Y-95338356D02*
X147297802Y-81272086D01*
X144616892Y-94917670D02*
X146210803Y-94778221D01*
X146210803Y-94778221D02*
X146123647Y-93782026D01*
X140658016Y-95103415D02*
X140738197Y-96019913D01*
X142251928Y-94963966D02*
X140658016Y-95103415D01*
X142227523Y-94685031D02*
X142251928Y-94963966D01*
X142227523Y-94685031D02*
X141017148Y-94790925D01*
X146167225Y-94280123D02*
X148418625Y-94083150D01*
X144529735Y-93921474D02*
X144616892Y-94917670D01*
X146123647Y-93782026D02*
X144529735Y-93921474D01*
X146123647Y-93782026D02*
X148375046Y-93585053D01*
X143961913Y-93168095D02*
X143177512Y-84202344D01*
X148305322Y-92788097D02*
X143961913Y-93168095D01*
X143177512Y-84202344D02*
X147520921Y-83822345D01*
X143605885Y-83361810D02*
X143518729Y-82365616D01*
X145199797Y-83222361D02*
X143605885Y-83361810D01*
X139587743Y-82870142D02*
X141181654Y-82730693D01*
X141181654Y-82730693D02*
X141206057Y-83009629D01*
X143518729Y-82365616D02*
X145112640Y-82226166D01*
X145112640Y-82226166D02*
X145199797Y-83222361D01*
X139507558Y-81953644D02*
X139587743Y-82870142D01*
X141101470Y-81814195D02*
X141181654Y-82730693D01*
X147297802Y-81272086D02*
X139507558Y-81953644D01*
%TO.C,J2*%
X117559566Y-81496903D02*
X110472238Y-78192028D01*
X116109473Y-80820715D02*
X115720664Y-81654515D01*
X110472238Y-78192028D02*
X104504868Y-90989093D01*
X113649396Y-80512128D02*
X112199303Y-79835938D01*
X112199303Y-79835938D02*
X111776686Y-80742247D01*
X117170756Y-82330707D02*
X117559566Y-81496903D01*
X115720664Y-81654515D02*
X117170756Y-82330707D01*
X115602330Y-81908284D02*
X115720664Y-81654515D01*
X115602330Y-81908284D02*
X116703495Y-82421764D01*
X111987996Y-80289093D02*
X109939740Y-79333975D01*
X113226778Y-81418437D02*
X113649396Y-80512128D01*
X111776686Y-80742247D02*
X113226778Y-81418437D01*
X111776686Y-80742247D02*
X109728429Y-79787129D01*
X113341837Y-82354792D02*
X109538273Y-90511561D01*
X109390335Y-80512176D02*
X113341837Y-82354792D01*
X109538273Y-90511561D02*
X105586771Y-88668946D01*
X108747024Y-91025298D02*
X108324406Y-91931606D01*
X107296932Y-90349110D02*
X108747024Y-91025298D01*
X111981005Y-93460165D02*
X110530910Y-92783976D01*
X110530910Y-92783976D02*
X110649244Y-92530210D01*
X108324406Y-91931606D02*
X106874314Y-91255417D01*
X106874314Y-91255417D02*
X107296932Y-90349110D01*
X111592195Y-94293969D02*
X111981005Y-93460165D01*
X110142103Y-93617780D02*
X110530910Y-92783976D01*
X104504868Y-90989093D02*
X111592195Y-94293969D01*
%TO.C,J1*%
X143690867Y-67225253D02*
X144643885Y-59463542D01*
X143885858Y-65637179D02*
X142972715Y-65525060D01*
X144643885Y-59463542D02*
X130629133Y-57742747D01*
X143419134Y-63202150D02*
X143614125Y-61614076D01*
X143614125Y-61614076D02*
X142621579Y-61492207D01*
X142777724Y-67113133D02*
X143690867Y-67225253D01*
X142972715Y-65525060D02*
X142777724Y-67113133D01*
X142694802Y-65490936D02*
X142972715Y-65525060D01*
X142694802Y-65490936D02*
X142546731Y-66696880D01*
X143117852Y-61553141D02*
X143393277Y-59309987D01*
X142426588Y-63080280D02*
X143419134Y-63202150D01*
X142621579Y-61492207D02*
X142426588Y-63080280D01*
X142621579Y-61492207D02*
X142897004Y-59249052D01*
X141571617Y-63479058D02*
X132638701Y-62382234D01*
X142102967Y-59151557D02*
X141571617Y-63479058D01*
X132638701Y-62382234D02*
X133170052Y-58054733D01*
X131905599Y-61788465D02*
X130913053Y-61666596D01*
X132100590Y-60200392D02*
X131905599Y-61788465D01*
X130589258Y-65616578D02*
X130784249Y-64028504D01*
X130784249Y-64028504D02*
X131062162Y-64062627D01*
X130913053Y-61666596D02*
X131108044Y-60078522D01*
X131108044Y-60078522D02*
X132100590Y-60200392D01*
X129676115Y-65504458D02*
X130589258Y-65616578D01*
X129871106Y-63916384D02*
X130784249Y-64028504D01*
X130629133Y-57742747D02*
X129676115Y-65504458D01*
D13*
%TO.C,R1*%
X120936971Y-72508192D02*
X120008327Y-80071394D01*
X120688718Y-82940700D02*
X122946760Y-83217953D01*
X124446978Y-67307187D02*
X124102697Y-70111129D01*
X124102697Y-70111129D02*
X122291300Y-69888718D01*
X122946760Y-83217953D02*
X122632947Y-85773759D01*
X122334367Y-88205498D02*
X130870264Y-89253573D01*
X125538779Y-67441243D02*
X124446978Y-67307187D01*
X132784366Y-68330889D02*
X133876166Y-68464946D01*
X131482657Y-84266029D02*
X133715886Y-84540235D01*
X131168844Y-86821835D02*
X131482657Y-84266029D01*
X133876166Y-68464946D02*
X133531885Y-71268889D01*
X133531885Y-71268889D02*
X135343282Y-71491300D01*
X136435994Y-73464174D02*
X137924813Y-73646978D01*
X137924813Y-73646978D02*
X137778570Y-74838033D01*
X136882830Y-82133248D02*
X136767054Y-83076166D01*
X136767054Y-83076166D02*
X135228608Y-82887269D01*
D14*
X138183433Y-80970900D02*
G75*
G02*
X137983435Y-80970900I-99999J0D01*
G01*
X137983435Y-80970900D02*
G75*
G02*
X138183433Y-80970900I99999J0D01*
G01*
%TD*%
M02*
