M48
; DRILL file {KiCad 8.0.1} date 2024-04-20T16:28:01+1200
; FORMAT={-:-/ absolute / metric / decimal}
; #@! TF.CreationDate,2024-04-20T16:28:01+12:00
; #@! TF.GenerationSoftware,Kicad,Pcbnew,8.0.1
; #@! TF.FileFunction,Plated,1,2,PTH
FMAT,2
METRIC
; #@! TA.AperFunction,Plated,PTH,ComponentDrill
T1C0.750
; #@! TA.AperFunction,Plated,PTH,ComponentDrill
T2C1.000
%
G90
G05
T1
X126.556Y-89.154
X127.508Y-79.248
X127.508Y-81.248
X127.508Y-83.248
X128.556Y-89.154
X130.556Y-89.154
X134.62Y-79.312
X134.62Y-81.312
X134.62Y-83.312
X136.208Y-89.154
X138.208Y-89.154
X140.208Y-89.154
X141.732Y-79.312
X141.732Y-81.312
X141.732Y-83.312
X145.702Y-89.154
X147.702Y-89.154
X148.844Y-79.312
X148.844Y-81.312
X148.844Y-83.312
X149.702Y-89.154
X151.702Y-89.154
X153.702Y-89.154
X155.702Y-89.154
X155.956Y-79.312
X155.956Y-81.312
X155.956Y-83.312
X161.164Y-89.154
X163.068Y-79.312
X163.068Y-81.312
X163.068Y-83.312
X163.164Y-89.154
X165.164Y-89.154
X167.164Y-89.154
X169.164Y-89.154
X170.18Y-79.312
X170.18Y-81.312
X170.18Y-83.312
X171.164Y-89.154
T2
X124.74Y-75.22
X124.74Y-93.0
X127.28Y-75.22
X127.28Y-93.0
X129.82Y-75.22
X129.82Y-93.0
X132.36Y-75.22
X132.36Y-93.0
X134.9Y-75.22
X134.9Y-93.0
X137.44Y-75.22
X137.44Y-93.0
X139.98Y-75.22
X139.98Y-93.0
X142.52Y-75.22
X142.52Y-93.0
X145.06Y-75.22
X145.06Y-93.0
X147.6Y-75.22
X147.6Y-93.0
X150.14Y-75.22
X150.14Y-93.0
X152.68Y-75.22
X152.68Y-93.0
X155.22Y-75.22
X155.22Y-93.0
X157.76Y-75.22
X157.76Y-93.0
X160.3Y-75.22
X160.3Y-93.0
X162.84Y-75.22
X162.84Y-93.0
X165.38Y-75.22
X165.38Y-93.0
X167.92Y-75.22
X167.92Y-93.0
X170.46Y-75.22
X170.46Y-93.0
X173.0Y-75.22
X173.0Y-93.0
M30
